<svg width="310" height="274" viewBox="0 0 310 274" fill="none" xmlns="http://www.w3.org/2000/svg">
<path d="M278.439 272.931H6.38244C4.68971 272.931 3.06632 272.261 1.86938 271.068C0.672437 269.875 4.03825e-06 268.257 4.03825e-06 266.57C-0.000939597 265.735 0.163503 264.907 0.483916 264.135C0.804329 263.363 1.27442 262.662 1.86727 262.071C2.46012 261.48 3.16409 261.012 3.93887 260.692C4.71365 260.373 5.54402 260.209 6.38244 260.21H278.439C280.132 260.21 281.755 260.88 282.952 262.073C284.149 263.266 284.822 264.884 284.822 266.57C284.82 268.257 284.147 269.873 282.95 271.066C281.754 272.258 280.131 272.929 278.439 272.931Z" fill="black"/>
<path d="M280.799 148.165L280.454 147.958C272.2 143.17 262.469 141.326 253.089 139.025C244.376 136.881 234.594 134.022 227.903 127.676C219.771 119.986 220.904 109.388 224.031 99.7542C227.315 89.6489 230.413 79.4721 228.965 68.7379C227.262 56.2729 221.673 44.6559 212.987 35.5276C199.362 21.2916 178.264 13.7447 158.048 15.8816C130.919 18.7402 108.638 37.3857 91.7207 57.5749C80.6196 70.8247 74.0722 85.8755 61.4077 98.4535C48.8939 110.889 34.8381 122.095 24.3035 136.188C10.2765 154.947 3.45664 178.867 8.00323 201.408C12.5498 223.948 29.18 244.516 51.9488 252.649C66.4491 257.837 82.355 257.937 97.845 257.98C130.058 258.066 162.315 258.145 194.421 255.715C215.547 254.107 236.961 251.32 256.208 242.958C275.456 234.596 292.502 219.91 298.813 200.843C305.109 181.897 298.591 158.735 280.799 148.165Z" fill="#E6EDFF"/>
<path d="M286.758 115.798C299.594 115.798 310 105.428 310 92.6362C310 79.8441 299.594 69.474 286.758 69.474C273.922 69.474 263.516 79.8441 263.516 92.6362C263.516 105.428 273.922 115.798 286.758 115.798Z" fill="#BFD2FF"/>
<path d="M51.1778 39.9386C50.1953 40.1315 49.2344 40.4211 48.3093 40.8033C48.3683 40.8717 48.4233 40.9433 48.4743 41.0177C48.6537 41.3035 48.7748 41.6217 48.8308 41.9541C48.8869 42.2866 48.8766 42.6268 48.8007 42.9553C48.7248 43.2838 48.5847 43.5941 48.3884 43.8687C48.1921 44.1432 47.9435 44.3765 47.6567 44.5553C47.37 44.7341 47.0507 44.8548 46.7171 44.9107C46.3835 44.9665 46.0422 44.9563 45.7125 44.8806C45.0468 44.7278 44.4693 44.3177 44.1069 43.7406C44.0559 43.6555 44.0104 43.5671 43.9707 43.4762C43.2107 44.1417 42.5145 44.8762 41.891 45.6702C41.9848 45.7009 42.076 45.7391 42.1635 45.7845C42.4776 45.9345 42.758 46.1462 42.9878 46.4069C43.2176 46.6676 43.3921 46.972 43.5008 47.3017C43.6095 47.6314 43.6502 47.9796 43.6203 48.3254C43.5905 48.6712 43.4907 49.0073 43.3271 49.3137C43.1635 49.62 42.9393 49.8902 42.6682 50.108C42.3971 50.3258 42.0845 50.4866 41.7494 50.5809C41.4142 50.6751 41.0634 50.7008 40.718 50.6565C40.3726 50.6121 40.0398 50.4985 39.7396 50.3226L39.4671 50.1368C39.133 51.0977 38.8929 52.0886 38.75 53.0955C38.8576 53.0955 38.958 53.0598 39.0727 53.0526C39.7397 53.0559 40.3795 53.3162 40.8582 53.7792C41.3368 54.2421 41.617 54.8717 41.6402 55.536C41.6634 56.2003 41.4277 56.8477 40.9825 57.3427C40.5373 57.8376 39.9171 58.1416 39.252 58.191C39.1303 58.2017 39.0079 58.2017 38.8863 58.191C39.0797 59.1989 39.3728 60.1851 39.7612 61.1355C39.8546 61.0536 39.9528 60.9772 40.0552 60.9068C40.634 60.583 41.3157 60.4939 41.9587 60.6579C42.6018 60.8219 43.1567 61.2264 43.5083 61.7874C43.8599 62.3485 43.9812 63.0229 43.847 63.6707C43.7127 64.3185 43.3333 64.8899 42.7874 65.2662C42.6731 65.3357 42.5532 65.3954 42.4289 65.4449C43.1112 66.2299 43.8677 66.9479 44.6878 67.5888C44.7287 67.4637 44.7791 67.3419 44.8384 67.2244C45.1589 66.6226 45.7061 66.1723 46.3597 65.9726C47.0134 65.7729 47.7198 65.8401 48.3237 66.1595C48.9275 66.4789 49.3794 67.0243 49.5798 67.6756C49.7801 68.327 49.7127 69.031 49.3922 69.6328C49.3234 69.756 49.2442 69.8731 49.1555 69.983C50.1397 70.3233 51.1561 70.5628 52.189 70.6976C52.1612 70.5634 52.1445 70.4272 52.1388 70.2903C52.127 69.9533 52.1819 69.6174 52.3005 69.3016C52.419 68.9859 52.5987 68.6965 52.8295 68.4499C53.2955 67.952 53.9408 67.659 54.6236 67.6353C55.3064 67.6116 55.9707 67.8592 56.4703 68.3236C56.7177 68.5535 56.9172 68.8298 57.0575 69.1366C57.1977 69.4434 57.276 69.7747 57.2878 70.1116C57.3022 70.2518 57.3022 70.3931 57.2878 70.5332C58.3124 70.3341 59.3143 70.0325 60.2782 69.6328C60.1845 69.5338 60.1004 69.4261 60.0272 69.3112C59.6592 68.7369 59.5352 68.0404 59.6824 67.375C59.8297 66.7095 60.2362 66.1296 60.8124 65.7629C61.3887 65.3961 62.0876 65.2725 62.7554 65.4193C63.4231 65.566 64.005 65.9711 64.373 66.5454C64.4464 66.6609 64.5089 66.7829 64.5594 66.9099C65.3354 66.2236 66.0438 65.465 66.675 64.6444C66.5515 64.6074 66.4315 64.5595 66.3164 64.5015C66.0023 64.3516 65.722 64.1399 65.4921 63.8791C65.2623 63.6184 65.0878 63.314 64.9791 62.9843C64.8704 62.6546 64.8298 62.3064 64.8596 61.9606C64.8895 61.6149 64.9892 61.2787 65.1528 60.9724C65.3165 60.666 65.5406 60.3958 65.8117 60.1781C66.0829 59.9603 66.3954 59.7994 66.7306 59.7052C67.0657 59.6109 67.4165 59.5852 67.7619 59.6296C68.1073 59.674 68.4401 59.7875 68.7403 59.9634C68.8508 60.0241 68.9563 60.0934 69.0558 60.1707C69.3909 59.2003 69.6311 58.1998 69.773 57.1834C69.6569 57.2051 69.5395 57.2194 69.4216 57.2263C69.059 57.2563 68.6942 57.2097 68.351 57.0895C68.0079 56.9693 67.694 56.7781 67.4302 56.5286C67.1663 56.279 66.9583 55.9767 66.8199 55.6415C66.6814 55.3062 66.6157 54.9456 66.6269 54.5832C66.638 54.2209 66.7259 53.865 66.8848 53.5388C67.0437 53.2127 67.2699 52.9237 67.5487 52.6908C67.8274 52.4579 68.1524 52.2863 68.5024 52.1873C68.8524 52.0883 69.2194 52.0642 69.5793 52.1164C69.3764 51.1169 69.0736 50.1401 68.6758 49.2006C68.5897 49.2649 68.518 49.3364 68.4248 49.3936C67.8459 49.7173 67.1642 49.8064 66.5212 49.6424C65.8782 49.4784 65.3232 49.0739 64.9716 48.5129C64.62 47.9519 64.4987 47.2774 64.633 46.6296C64.7672 45.9818 65.1466 45.4105 65.6925 45.0341L65.965 44.8984C65.2937 44.1436 64.5517 43.4545 63.7491 42.8401C63.7207 42.9288 63.6847 43.0149 63.6415 43.0974C63.4828 43.3954 63.2668 43.6593 63.0058 43.8741C62.7448 44.0888 62.4438 44.2503 62.1202 44.3492C61.7966 44.448 61.4566 44.4824 61.1196 44.4504C60.7826 44.4183 60.4553 44.3204 60.1563 44.1623C59.8573 44.0041 59.5924 43.7888 59.3769 43.5287C59.1614 43.2686 58.9994 42.9687 58.9002 42.6462C58.801 42.3236 58.7665 41.9848 58.7987 41.649C58.8308 41.3132 58.9291 40.987 59.0878 40.689C59.1362 40.6077 59.1888 40.529 59.2455 40.4532C58.2895 40.1337 57.3049 39.9064 56.3053 39.7742C56.3243 39.8589 56.3362 39.9449 56.3411 40.0315C56.3534 40.3684 56.2989 40.7045 56.1809 41.0204C56.0628 41.3364 55.8834 41.626 55.653 41.8729C55.4226 42.1198 55.1457 42.319 54.838 42.4592C54.5303 42.5994 54.198 42.6778 53.8599 42.69C53.5218 42.7022 53.1846 42.648 52.8676 42.5303C52.5505 42.4126 52.2599 42.2339 52.0121 42.0043C51.7644 41.7747 51.5645 41.4987 51.4238 41.1921C51.2831 40.8855 51.2044 40.5542 51.1922 40.2173C51.18 40.1249 51.1753 40.0317 51.1778 39.9386ZM53.8958 46.2848C55.6674 46.2223 57.4178 46.6848 58.9258 47.6136C60.4337 48.5425 61.6315 49.8961 62.3675 51.5032C63.1036 53.1104 63.345 54.899 63.0612 56.6428C62.7773 58.3867 61.981 60.0075 60.7729 61.3004C59.5647 62.5933 57.9991 63.5002 56.2738 63.9064C54.5486 64.3126 52.7412 64.1999 51.0802 63.5825C49.4192 62.9652 47.9792 61.8709 46.9422 60.438C45.9052 59.0051 45.3179 57.298 45.2544 55.5325C45.2112 54.3595 45.4006 53.1896 45.8118 52.0897C46.2229 50.9898 46.8477 49.9815 47.6504 49.1225C48.453 48.2635 49.4178 47.5707 50.4895 47.0838C51.5611 46.5969 52.7187 46.3254 53.8958 46.2848Z" fill="black"/>
<path d="M223.687 14.9382C221.745 15.3144 219.843 15.8719 218.007 16.6034C218.114 16.7463 218.236 16.8749 218.33 17.025C219.043 18.1623 219.274 19.5353 218.971 20.842C218.668 22.1488 217.857 23.2822 216.716 23.993C215.575 24.7037 214.197 24.9336 212.886 24.6321C211.575 24.3305 210.437 23.5222 209.724 22.385C209.624 22.2184 209.538 22.0439 209.466 21.8633C207.969 23.1596 206.601 24.5955 205.378 26.1512C205.55 26.2227 205.73 26.2799 205.902 26.3656C206.49 26.6768 207.011 27.1003 207.435 27.612C207.859 28.1237 208.177 28.7136 208.372 29.3481C208.567 29.9825 208.635 30.649 208.572 31.3095C208.508 31.9701 208.315 32.6117 208.003 33.1978C207.691 33.7839 207.266 34.303 206.752 34.7254C206.239 35.1478 205.647 35.4653 205.01 35.6598C204.374 35.8542 203.705 35.9218 203.042 35.8586C202.379 35.7955 201.735 35.6029 201.147 35.2918C200.958 35.1877 200.778 35.0682 200.609 34.9344C199.957 36.826 199.494 38.7769 199.225 40.7589C199.431 40.7159 199.64 40.6872 199.849 40.6732C200.52 40.641 201.19 40.7418 201.821 40.9697C202.452 41.1977 203.032 41.5483 203.526 42.0011C204.02 42.454 204.419 43.0001 204.699 43.6078C204.98 44.2155 205.137 44.8727 205.16 45.5413C205.184 46.2098 205.074 46.8764 204.837 47.5024C204.601 48.1283 204.242 48.7012 203.781 49.1877C203.32 49.6742 202.767 50.0648 202.154 50.3366C201.54 50.6085 200.879 50.7562 200.208 50.7713C199.968 50.7727 199.728 50.756 199.491 50.7213C199.871 52.7035 200.45 54.6428 201.219 56.51C201.397 56.3513 201.586 56.2056 201.785 56.0741C202.927 55.3633 204.304 55.1334 205.616 55.435C206.927 55.7365 208.064 56.5449 208.777 57.6821C209.491 58.8193 209.721 60.1923 209.419 61.4991C209.116 62.8058 208.305 63.9393 207.164 64.65C206.934 64.7821 206.694 64.8968 206.447 64.9931C207.787 66.5244 209.274 67.9222 210.886 69.1667C210.962 68.921 211.057 68.682 211.173 68.452C211.496 67.8269 211.948 67.276 212.497 66.8346C213.047 66.3933 213.683 66.0712 214.365 65.8889C215.046 65.7067 215.759 65.6683 216.456 65.7763C217.154 65.8842 217.821 66.1362 218.415 66.516C219.01 66.8957 219.518 67.395 219.907 67.9817C220.296 68.5684 220.559 69.2297 220.677 69.9233C220.795 70.6168 220.767 71.3273 220.593 72.0092C220.42 72.6912 220.106 73.3295 219.671 73.8835C221.609 74.5423 223.607 75.0091 225.637 75.2771C225.579 75.0161 225.543 74.7507 225.53 74.4838C225.497 73.8156 225.598 73.1477 225.827 72.5187C226.056 71.8898 226.408 71.3124 226.862 70.8201C227.317 70.3277 227.865 69.9302 228.474 69.6505C229.084 69.3709 229.744 69.2147 230.415 69.191C231.085 69.1674 231.754 69.2767 232.382 69.5127C233.01 69.7487 233.585 70.1066 234.074 70.5658C234.562 71.0249 234.954 71.576 235.226 72.1873C235.499 72.7985 235.647 73.4577 235.663 74.1264C235.665 74.4062 235.646 74.6858 235.605 74.9626C237.616 74.5682 239.581 73.972 241.471 73.1831C241.291 72.9874 241.128 72.777 240.984 72.5542C240.631 71.9911 240.392 71.3642 240.282 70.7093C240.172 70.0543 240.193 69.3842 240.342 68.7372C240.492 68.0902 240.768 67.4789 241.155 66.9382C241.542 66.3976 242.032 65.9382 242.597 65.5862C243.162 65.2343 243.791 64.9967 244.449 64.8871C245.106 64.7774 245.778 64.7978 246.427 64.9471C247.739 65.2487 248.876 66.057 249.589 67.1942C249.725 67.4231 249.842 67.662 249.941 67.9089C251.472 66.5689 252.865 65.0797 254.1 63.4637C253.855 63.3846 253.615 63.2891 253.383 63.1778C252.763 62.8839 252.21 62.4677 251.757 61.9545C251.304 61.4414 250.96 60.8418 250.746 60.1923C250.532 59.5427 250.452 58.8567 250.512 58.1756C250.572 57.4945 250.77 56.8327 251.094 56.23C251.418 55.6274 251.861 55.0966 252.397 54.6696C252.933 54.2427 253.55 53.9286 254.211 53.7463C254.872 53.5641 255.564 53.5174 256.244 53.6092C256.923 53.701 257.577 53.9293 258.166 54.2803C258.382 54.4018 258.589 54.5404 258.783 54.6948C259.429 52.7838 259.883 50.8136 260.138 48.8132C259.913 48.8562 259.686 48.8849 259.457 48.8989C258.786 48.9311 258.116 48.8303 257.485 48.6023C256.854 48.3744 256.275 48.0238 255.781 47.5709C255.286 47.1181 254.888 46.5719 254.607 45.9642C254.326 45.3565 254.17 44.6993 254.146 44.0308C254.122 43.3623 254.232 42.6957 254.469 42.0697C254.705 41.4438 255.065 40.8709 255.525 40.3844C255.986 39.8978 256.539 39.5073 257.152 39.2355C257.766 38.9636 258.427 38.8159 259.098 38.8007C259.321 38.8006 259.544 38.8149 259.765 38.8436C259.37 36.8848 258.782 34.9697 258.008 33.1263C257.855 33.262 257.692 33.3862 257.521 33.498C256.379 34.2087 255.002 34.4386 253.69 34.1371C252.379 33.8355 251.242 33.0272 250.529 31.89C249.815 30.7527 249.585 29.3797 249.887 28.073C250.19 26.7662 251.001 25.6328 252.142 24.922C252.317 24.8188 252.499 24.728 252.687 24.6505C251.371 23.1849 249.919 21.8472 248.349 20.6555C248.277 20.827 248.227 20.9985 248.141 21.1629C247.503 22.3466 246.419 23.2292 245.128 23.6165C243.837 24.0038 242.444 23.8642 241.256 23.2283C240.068 22.5924 239.183 21.5123 238.794 20.2257C238.405 18.939 238.546 17.5512 239.184 16.3675C239.281 16.2049 239.386 16.0475 239.499 15.8959C237.62 15.2667 235.685 14.8215 233.719 14.5666C233.719 14.7381 233.784 14.9025 233.791 15.074C233.814 15.7375 233.707 16.3992 233.474 17.0212C233.241 17.6432 232.887 18.2133 232.433 18.6991C231.979 19.1849 231.433 19.5767 230.827 19.8523C230.221 20.1279 229.566 20.2819 228.9 20.3053C228.234 20.3288 227.57 20.2213 226.946 19.9891C226.322 19.7568 225.75 19.4044 225.262 18.9518C224.278 18.0377 223.698 16.7714 223.651 15.4313C223.654 15.2664 223.666 15.1019 223.687 14.9382ZM228.929 24.4003C233.014 24.257 237.05 25.3245 240.526 27.4678C244.002 29.611 246.762 32.7338 248.457 36.4408C250.152 40.1478 250.705 44.2724 250.047 48.2929C249.388 52.3133 247.548 56.0487 244.759 59.0266C241.969 62.0044 238.356 64.0907 234.377 65.0216C230.397 65.9524 226.23 65.686 222.403 64.2559C218.575 62.8259 215.259 60.2965 212.875 56.9878C210.49 53.6791 209.144 49.7399 209.007 45.6686C208.911 42.9661 209.35 40.2713 210.3 37.738C211.249 35.2047 212.69 32.8826 214.54 30.9043C216.39 28.926 218.613 27.3302 221.082 26.2081C223.55 25.086 226.217 24.4596 228.929 24.3646V24.4003Z" fill="#0F89F9"/>
<path d="M193.919 40.9161C193.295 40.4659 192.484 40.08 192.284 39.351C191.889 38.1719 193.158 36.9426 192.843 35.7777C192.585 34.7701 191.409 34.3484 190.347 34.2055C189.286 34.0625 188.131 33.9125 187.543 33.0549C187.048 32.3402 187.163 31.3897 187.048 30.5321C186.919 29.6653 186.545 28.853 185.969 28.19C185.394 27.527 184.642 27.0405 183.8 26.7873C182.007 26.2799 180.444 27.9022 178.945 28.5525C178.163 28.8984 177.48 29.4319 176.955 30.1053C176.431 30.7787 176.082 31.5711 175.94 32.4117C175.672 34.1153 175.765 35.8558 176.213 37.5215C176.658 39.1809 176.986 40.8692 177.195 42.5742C177.266 44.3934 177.001 46.2102 176.413 47.9341C175.978 49.27 176.057 50.7197 176.636 52.0005C177.288 53.1083 178.601 53.6228 179.841 53.9802C182.232 54.7503 184.762 54.9941 187.256 54.6948C189.629 54.3874 191.811 53.238 193.402 51.4574C194.501 50.5729 195.345 49.4139 195.848 48.0985C196.744 45.59 196.063 42.4813 193.919 40.9161Z" fill="black"/>
<path d="M181.469 32.2616C181.619 32.7823 181.662 33.3274 181.597 33.865C181.531 34.4026 181.359 34.9217 181.089 35.3918C180.91 35.6991 180.63 36.0136 180.272 35.9921C179.913 35.9707 179.641 35.5133 179.512 35.1274C179.151 34.0587 178.925 32.9497 178.837 31.8257C178.78 31.111 178.909 29.8961 179.892 30.1391C180.652 30.3249 181.268 31.6041 181.469 32.2616Z" fill="#FF337B"/>
<path d="M181.433 49.0919C180.716 51.6003 176.643 52.8153 174.262 49.9566C173.968 49.5993 173.703 49.2419 173.445 48.8489C170.899 49.3491 167.119 50.4497 165.42 52.508C164.915 53.2069 164.554 53.9988 164.359 54.8377C163.476 57.8465 162.738 60.8981 162.157 63.9711C162.064 64.32 162.064 64.6871 162.157 65.036C162.352 65.4309 162.656 65.7629 163.032 65.9936C166.546 68.7593 167.471 73.2117 168.625 77.2424C170.382 83.3527 171.186 91.8143 172.928 97.9247C178.665 98.3678 202.617 92.922 205.5 90.4422C201.37 83.024 198.021 69.6527 196.715 60.3478C196.156 56.41 194.607 52.6509 193.094 48.9632C192.735 48.0985 192.42 46.1046 191.76 45.54C190.885 44.8253 182.545 46.0546 181.663 46.0831C181.692 46.5596 181.713 47.0527 181.727 47.5625C181.71 48.0845 181.611 48.6005 181.433 49.0919Z" fill="#FF337B"/>
<path d="M172.928 45.0469C172.658 44.1813 172.28 43.353 171.802 42.5813C173.216 42.5318 174.583 42.0668 175.732 41.2449C176.299 40.8311 176.827 40.367 177.31 39.8584C177.489 39.6798 177.754 39.2295 178.027 38.9008C177.647 39.3439 178.579 41.8238 178.744 42.324C179.119 43.4059 179.695 44.4073 180.444 45.2756C181.197 46.1117 181.691 46.2475 181.828 47.4195C181.929 48.705 181.74 49.9968 181.275 51.2001C181.064 51.9491 180.616 52.6105 179.999 53.0868C179.598 53.3021 179.157 53.4341 178.704 53.4746C178.25 53.5152 177.793 53.4635 177.36 53.3227C175.876 52.9296 173.839 51.7004 173.308 50.1496C173.029 49.342 173.344 48.9275 173.416 48.0985C173.455 47.0593 173.289 46.0226 172.928 45.0469Z" fill="#FFC1A6"/>
<path d="M173.43 47.6911C173.43 47.6054 173.43 47.5268 173.43 47.441C173.355 46.6271 173.189 45.824 172.935 45.0469C172.665 44.1813 172.287 43.353 171.81 42.5813C173.223 42.5318 174.59 42.0668 175.739 41.2449C176.306 40.8311 176.834 40.367 177.317 39.8584C177.496 39.6798 177.762 39.2295 178.034 38.9008C178.077 39.3653 178.142 39.8156 178.221 40.2658C178.077 41.7953 177.567 43.2682 176.734 44.5604C175.9 45.8525 174.767 46.9262 173.43 47.6911Z" fill="#E3856D"/>
<path d="M163.971 37.0927C164.549 39.4137 165.874 41.4821 167.743 42.9815C168.234 43.4092 168.811 43.7261 169.436 43.9106C169.748 44.0009 170.077 44.0195 170.397 43.965C170.718 43.9106 171.022 43.7844 171.286 43.5961C172.003 43.0244 172.132 41.9953 172.182 41.0805C172.34 39.3627 172.284 37.6322 172.018 35.9278C171.75 34.2121 170.938 32.6269 169.701 31.404C168.661 30.4464 165.814 29.0599 164.559 30.3749C163.197 31.8256 163.548 35.3918 163.971 37.0927Z" fill="black"/>
<path d="M165.456 33.0549C165.7 31.4397 167.536 32.6404 169.041 31.9543C170.339 31.354 171.322 30.8394 172.785 30.9395C174.105 31.0092 175.354 31.5613 176.292 32.4903C176.535 32.7475 176.758 33.012 176.966 33.2764C177.562 34.2207 178.069 35.2184 178.479 36.2565V36.328C178.621 38.3417 178.151 40.3513 177.131 42.0953C176.683 42.9187 176.023 43.6079 175.219 44.0917C174.414 44.5754 173.495 44.8361 172.555 44.8468C171.481 44.828 170.448 44.4276 169.644 43.7176C168.762 42.9164 168.033 41.9624 167.492 40.9018C166.639 39.2867 165.183 34.8415 165.456 33.0549Z" fill="#FFC1A6"/>
<path d="M172.555 36.0993C170.784 35.6777 168.97 35.4275 167.327 34.62C166.092 34.0484 165.095 33.0653 164.509 31.8399C163.964 30.5893 164.337 29.696 165.061 28.6311C166.118 27.0742 167.705 25.9519 169.529 25.4723C171.329 25.0006 173.581 25.701 175.309 26.2942C176.527 26.6816 177.618 27.3903 178.464 28.3452C179.899 30.0318 180.35 32.9548 180.236 35.0916C180.158 35.9766 179.978 36.8497 179.698 37.693C179.49 38.4077 179.124 39.2152 178.264 39.3224C177.697 39.3939 176.55 37.7716 175.969 37.4072C175.037 36.856 174.026 36.4511 172.971 36.2065L172.555 36.0993Z" fill="black"/>
<path d="M169.83 38.0432C169.846 38.1793 169.916 38.3035 170.023 38.389C170.13 38.4746 170.267 38.5147 170.404 38.5006C170.472 38.4943 170.538 38.4747 170.598 38.4429C170.658 38.4111 170.712 38.3677 170.755 38.3152C170.798 38.2627 170.831 38.2021 170.851 38.1371C170.87 38.072 170.877 38.0037 170.87 37.936C170.849 37.8044 170.778 37.6858 170.672 37.6046C170.566 37.5234 170.432 37.4858 170.299 37.4996C170.166 37.5133 170.043 37.5773 169.956 37.6784C169.869 37.7795 169.824 37.91 169.83 38.0432Z" fill="black"/>
<path d="M170.605 36.5567C170.253 36.487 169.887 36.5347 169.565 36.6925" stroke="black" stroke-width="0.75" stroke-miterlimit="10" stroke-linecap="round"/>
<path d="M166.61 38.9008C166.627 39.0374 166.696 39.1623 166.803 39.249C166.91 39.3357 167.047 39.3775 167.184 39.3653C167.285 39.3537 167.38 39.3126 167.458 39.2473C167.535 39.182 167.592 39.0953 167.62 38.9981C167.649 38.9009 167.648 38.7975 167.617 38.7009C167.587 38.6043 167.529 38.5187 167.45 38.4549C167.371 38.391 167.275 38.3518 167.174 38.342C167.073 38.3323 166.971 38.3525 166.882 38.4001C166.792 38.4477 166.718 38.5206 166.67 38.6097C166.622 38.6987 166.601 38.8 166.61 38.9008Z" fill="black"/>
<path d="M167.385 37.4214C167.035 37.3441 166.669 37.3922 166.352 37.5572" stroke="black" stroke-width="0.75" stroke-miterlimit="10" stroke-linecap="round"/>
<path d="M168.525 38.9651C168.63 39.416 168.556 39.89 168.317 40.2872C168.241 40.3807 168.199 40.4961 168.195 40.616C168.212 40.6789 168.248 40.7352 168.298 40.7773C168.348 40.8194 168.41 40.8454 168.475 40.8518C168.604 40.8573 168.733 40.8379 168.855 40.7946" stroke="black" stroke-width="0.75" stroke-miterlimit="10" stroke-linecap="round"/>
<path d="M171.121 41.5522C170.9 41.7858 170.627 41.9654 170.325 42.077C170.023 42.1885 169.699 42.2291 169.378 42.1954" stroke="black" stroke-width="0.75" stroke-miterlimit="10" stroke-linecap="round"/>
<path d="M178.601 36.2065C178.638 36.5804 178.564 36.957 178.387 37.2888C178.21 37.6206 177.938 37.8927 177.606 38.0707C177.274 38.2487 176.897 38.3247 176.521 38.289C176.146 38.2533 175.79 38.1075 175.498 37.8701C175.205 37.6327 174.99 37.3143 174.879 36.9552C174.769 36.596 174.767 36.2122 174.875 35.8521C174.983 35.4921 175.196 35.1721 175.486 34.9324C175.776 34.6928 176.132 34.5443 176.507 34.5056C176.757 34.479 177.009 34.5019 177.25 34.5732C177.491 34.6444 177.715 34.7626 177.91 34.9207C178.105 35.0789 178.266 35.274 178.384 35.4947C178.503 35.7154 178.577 35.9573 178.601 36.2065Z" fill="#FFC1A6"/>
<path d="M176.987 35.5491C176.846 35.5458 176.706 35.5782 176.581 35.6431C176.455 35.7081 176.348 35.8036 176.27 35.9207C176.195 36.0379 176.151 36.1721 176.142 36.3109C176.133 36.4496 176.16 36.5883 176.22 36.714C176.295 36.6318 176.393 36.5738 176.502 36.5471C176.61 36.5204 176.724 36.5262 176.829 36.5639C176.934 36.6024 177.025 36.6713 177.09 36.7617C177.155 36.8522 177.192 36.96 177.195 37.0713" stroke="black" stroke-width="0.75" stroke-linecap="round" stroke-linejoin="round"/>
<path d="M222.869 159.857H71.5909C68.1294 159.857 65.3232 162.654 65.3232 166.103V250.691C65.3232 254.14 68.1294 256.937 71.5909 256.937H222.869C226.331 256.937 229.137 254.14 229.137 250.691V166.103C229.137 162.654 226.331 159.857 222.869 159.857Z" fill="#DCE4FF" stroke="black" stroke-width="0.75" stroke-miterlimit="10"/>
<path d="M241.263 257.058H53.1965C53.1956 258.082 53.3971 259.096 53.7895 260.042C54.1819 260.987 54.7575 261.847 55.4835 262.571C56.2094 263.295 57.0714 263.87 58.0203 264.262C58.9691 264.654 59.9861 264.855 61.0132 264.855H233.447C234.474 264.855 235.491 264.654 236.44 264.262C237.388 263.87 238.25 263.295 238.976 262.571C239.702 261.847 240.278 260.987 240.67 260.042C241.063 259.096 241.264 258.082 241.263 257.058Z" fill="#BAC5EF" stroke="black" stroke-width="0.75" stroke-miterlimit="10"/>
<path d="M220.309 163.674H74.1509C71.4458 163.674 69.2529 165.859 69.2529 168.555V249.011C69.2529 251.707 71.4458 253.892 74.1509 253.892H220.309C223.014 253.892 225.207 251.707 225.207 249.011V168.555C225.207 165.859 223.014 163.674 220.309 163.674Z" fill="#545D78"/>
<path d="M149.406 161.68C149.406 161.918 149.335 162.152 149.202 162.351C149.069 162.549 148.88 162.704 148.658 162.795C148.437 162.887 148.193 162.911 147.958 162.864C147.723 162.818 147.507 162.703 147.337 162.534C147.168 162.365 147.052 162.149 147.006 161.915C146.959 161.681 146.983 161.438 147.075 161.217C147.166 160.997 147.322 160.808 147.521 160.675C147.72 160.543 147.955 160.472 148.194 160.472C148.516 160.472 148.824 160.599 149.051 160.826C149.279 161.052 149.406 161.359 149.406 161.68Z" fill="#333333"/>
<path d="M85.3381 72.0968L85.3381 253.363H209.129V72.0968H85.3381Z" fill="#FEFEFF"/>
<path d="M158.6 238.984L142.128 218.531L127.799 236.826L115.379 223.448L117.007 221.954L127.656 233.424L142.099 214.979L158.141 234.897L167.456 215.951L187.113 212.485L187.493 214.657L168.948 217.923L158.6 238.984Z" fill="black"/>
<path d="M190.139 213.571C190.139 213.004 189.97 212.45 189.653 211.979C189.337 211.508 188.886 211.142 188.36 210.927C187.834 210.712 187.255 210.657 186.698 210.77C186.141 210.884 185.63 211.159 185.23 211.563C184.83 211.966 184.56 212.479 184.453 213.036C184.347 213.593 184.409 214.168 184.631 214.69C184.854 215.212 185.227 215.656 185.703 215.966C186.18 216.275 186.738 216.437 187.307 216.43C188.061 216.42 188.782 216.115 189.312 215.58C189.842 215.045 190.139 214.323 190.139 213.571Z" fill="#FF337B"/>
<path d="M161.354 236.941C161.354 236.375 161.185 235.822 160.87 235.352C160.555 234.882 160.107 234.516 159.583 234.3C159.059 234.083 158.482 234.027 157.926 234.137C157.369 234.247 156.858 234.519 156.457 234.919C156.056 235.319 155.782 235.828 155.672 236.383C155.561 236.937 155.618 237.512 155.835 238.035C156.052 238.557 156.42 239.003 156.892 239.317C157.363 239.632 157.918 239.799 158.485 239.799C159.246 239.799 159.976 239.498 160.514 238.962C161.052 238.426 161.354 237.699 161.354 236.941Z" fill="#0F89F9"/>
<path d="M170.676 216.937C170.676 216.37 170.507 215.816 170.19 215.345C169.874 214.875 169.424 214.508 168.897 214.293C168.371 214.078 167.792 214.023 167.235 214.136C166.678 214.25 166.167 214.525 165.767 214.929C165.367 215.332 165.097 215.845 164.99 216.402C164.884 216.959 164.946 217.534 165.168 218.056C165.391 218.578 165.764 219.022 166.241 219.332C166.717 219.641 167.275 219.803 167.844 219.796C168.598 219.786 169.319 219.481 169.849 218.946C170.379 218.411 170.677 217.689 170.676 216.937Z" fill="#FFB861"/>
<path d="M142.006 219.767C143.574 219.767 144.845 218.5 144.845 216.937C144.845 215.374 143.574 214.107 142.006 214.107C140.437 214.107 139.166 215.374 139.166 216.937C139.166 218.5 140.437 219.767 142.006 219.767Z" fill="#FFB861"/>
<path d="M128.065 237.62C129.633 237.62 130.905 236.352 130.905 234.789C130.905 233.226 129.633 231.959 128.065 231.959C126.496 231.959 125.225 233.226 125.225 234.789C125.225 236.352 126.496 237.62 128.065 237.62Z" fill="#FF337B"/>
<path d="M119.646 223.24C119.646 222.675 119.477 222.122 119.162 221.652C118.847 221.182 118.399 220.816 117.875 220.599C117.351 220.383 116.774 220.326 116.218 220.437C115.661 220.547 115.15 220.819 114.749 221.219C114.348 221.619 114.074 222.128 113.964 222.683C113.853 223.237 113.91 223.812 114.127 224.334C114.344 224.857 114.712 225.303 115.184 225.617C115.655 225.931 116.21 226.099 116.777 226.099C117.538 226.099 118.268 225.798 118.806 225.262C119.343 224.726 119.646 223.999 119.646 223.24Z" fill="#3FD4C7"/>
<path d="M104.313 205.367V243.951H190.713" stroke="black" stroke-width="0.75" stroke-miterlimit="10"/>
<path d="M124.379 143.77H111.191V174.293H124.379V143.77Z" fill="#FFB861"/>
<path d="M144.76 128.834H131.572V174.293H144.76V128.834Z" fill="#FF337B"/>
<path d="M108.731 135.001C124.616 127.78 138.753 117.233 150.181 104.078" stroke="black" stroke-width="0.75" stroke-miterlimit="10" stroke-linecap="round"/>
<path d="M151.386 102.684L150.446 105.35L150.059 104.178L148.847 103.935L151.386 102.684Z" fill="black"/>
<path d="M165.147 108.216H151.959V174.293H165.147V108.216Z" fill="#3FD4C7"/>
<path d="M185.535 137.117H172.347V174.293H185.535V137.117Z" fill="#0F89F9"/>
<path d="M103.431 109.452V174.393H191.531" stroke="black" stroke-width="0.75" stroke-miterlimit="10"/>
<path d="M191.401 180.661H102.929V185.099H191.401V180.661Z" fill="black"/>
<path d="M173.638 92.7719H120.47V97.21H173.638V92.7719Z" fill="black"/>
<path d="M191.294 85.0179H102.822V89.4559H191.294V85.0179Z" fill="black"/>
<path d="M191.401 188.801H102.929V193.239H191.401V188.801Z" fill="black"/>
<path d="M191.401 196.941H102.929V201.379H191.401V196.941Z" fill="black"/>
<path d="M188.045 45.6686C187.013 45.9116 185.994 46.1975 184.976 46.4834C184.799 46.52 184.632 46.5957 184.488 46.7049C184.321 46.887 184.216 47.1171 184.187 47.3624C183.875 49.1153 183.92 50.913 184.32 52.6481C184.721 54.3831 185.468 56.0199 186.518 57.4606C187.149 58.2467 187.895 58.8899 188.576 59.6689C189.257 60.4478 190.154 61.0553 190.727 61.8128C191.445 62.7062 191.724 64.1498 192.047 65.2218C192.814 67.6925 193.286 70.2448 193.453 72.8258C193.567 74.5267 193.646 76.4563 194.951 77.5497C196.256 78.6431 198.3 78.3572 199.634 77.321C200.906 76.1957 201.831 74.7334 202.302 73.1045C203.838 68.9574 204.544 64.5509 204.382 60.1334C204.188 56.1384 202.947 51.3288 200.373 48.17C198.637 46.026 195.783 45.1041 193.044 45.0683C191.359 45.0605 189.68 45.2622 188.045 45.6686Z" fill="#FF337B"/>
<path d="M190.498 69.6312C191.454 64.5 192.41 59.3687 193.366 54.2374" stroke="black" stroke-width="0.75" stroke-miterlimit="10"/>
<path d="M191.473 55.2022C191.803 56.0384 192.133 56.8817 192.456 57.7178" stroke="black" stroke-width="0.75" stroke-miterlimit="10"/>
<path d="M172.111 80.6871C172.478 80.5593 172.862 80.4894 173.251 80.4798C176.736 80.4012 180.128 80.0439 183.642 79.6937C185.994 79.4555 188.342 79.3197 190.684 79.2863C192.57 79.2863 194.757 79.6722 196.6 79.1505C198.444 78.6288 199.871 78.0642 200.846 76.4563C201.309 75.6875 201.733 74.8956 202.115 74.0836C202.37 73.6522 202.485 73.1532 202.445 72.6543C202.294 71.9396 201.513 71.518 200.745 71.2249C199.118 70.6318 198.106 69.6956 196.235 69.5098C194.282 69.3612 192.318 69.513 190.412 69.96C186.683 70.739 182.954 71.0606 179.289 72.1469C175.189 73.4473 171.179 75.0133 167.284 76.835C165.834 77.3776 164.497 78.182 163.34 79.2077C162.579 79.9154 162.113 80.8836 162.038 81.9186C161.962 82.9535 162.281 83.9788 162.931 84.7892C163.127 85.0422 163.385 85.2408 163.68 85.366C163.975 85.4911 164.298 85.5386 164.617 85.5039C165.334 85.3824 165.764 84.4819 165.19 84.2175C168.934 85.6397 169.034 81.7805 172.111 80.6871Z" fill="#FFC1A6"/>
<path d="M160.314 81.2802V81.0515L160.142 81.4732L160.314 81.2802Z" fill="#FF337B"/>
<path d="M170.081 52.265C169.864 51.8489 169.533 51.5022 169.127 51.2644C167.908 50.5498 165.355 51.6503 164.258 52.2507C164.011 52.3781 163.772 52.5189 163.541 52.6723C162.247 53.5377 161.075 54.5711 160.056 55.7454C159.704 56.1241 159.339 56.5172 159.023 56.9031C153.967 62.7276 150.697 69.1381 151.515 76.9136C151.694 78.5859 152.024 80.3869 153.272 81.5089C153.783 81.9412 154.386 82.2526 155.036 82.4197C155.685 82.5868 156.365 82.6052 157.022 82.4737C158.273 82.2111 159.424 81.6017 160.343 80.7156V81.0301L160.529 80.5798C162.523 78.6503 162.989 75.9774 163.476 73.3832L168.231 61.7485C168.991 59.8975 171.436 54.802 170.081 52.265Z" fill="#FF337B"/>
<path d="M161.999 109.809C164.15 106.236 160.206 105.664 159.625 102.491C159.561 102.108 159.561 101.717 159.625 101.334C160.178 97.8746 160.421 94.4585 160.694 90.9281C160.88 88.5697 161.167 86.2185 161.562 83.8959C161.82 82.3236 162.436 80.5798 162.508 78.9433C162.508 78.4215 162.415 77.8998 162.329 77.3924C161.988 76.7531 161.523 76.188 160.96 75.7303C160.397 75.2725 159.748 74.9314 159.052 74.7268C158.075 74.4364 157.042 74.3881 156.042 74.5862C155.042 74.7842 154.106 75.2225 153.315 75.8631C152.919 76.4728 152.565 77.1078 152.253 77.7641C151.883 79.4746 151.741 81.2263 151.83 82.9739C151.959 86.7759 151.615 90.5208 152.074 94.287C152.674 98.5126 153.568 102.691 154.749 106.794C155.046 108.297 155.638 109.728 156.492 111.003C157.137 111.866 158.083 112.459 159.144 112.665C160.205 112.871 161.304 112.676 162.229 112.118C162.52 111.961 162.767 111.735 162.949 111.459C163.13 111.183 163.24 110.867 163.268 110.538C163.233 109.838 162.386 109.273 161.999 109.809Z" fill="#FFC1A6"/>
<path d="M162.308 77.4997C163.333 72.8329 165.178 68.3836 167.758 64.3571" stroke="black" stroke-width="0.75" stroke-miterlimit="10"/>
<path d="M165.922 67.2085L167.786 66.015" stroke="black" stroke-width="0.75" stroke-miterlimit="10"/>
<path d="M55.2618 156.863C57.9296 159.907 59.0196 164.009 59.9303 167.847C61.1017 172.807 62.273 177.769 63.4443 182.734C63.7607 183.887 63.9578 185.07 64.0323 186.264C63.9722 188.367 63.6543 190.455 63.0857 192.481C62.5048 194.854 61.0778 194.704 58.9551 194.497C55.5989 194.161 51.0667 193.153 48.7718 190.423C47.6962 189.13 47.3376 187.4 47.0436 185.742C46.6133 183.47 46.1902 181.197 45.7599 178.924C44.0173 169.634 42.2747 160.05 44.2468 150.802C48.5381 151.414 52.4564 153.569 55.2618 156.863Z" fill="white"/>
<path d="M60.1886 186.25C61.673 186.964 63.0571 187.851 64.4913 188.708C66.7575 190.066 69.124 191.024 71.4475 192.281C72.0841 192.67 72.7789 192.955 73.5056 193.125C74.7463 193.346 76.0586 192.875 77.3064 193.046C78.9845 193.268 80.4116 194.754 81.014 196.719C82.0394 200.028 79.6442 198.799 78.0594 198.506L74.3518 197.827C69.5583 196.986 64.7143 196.461 59.8515 196.255C57.1479 196.119 52.3862 196.176 50.3639 193.725C49.3814 192.532 48.2914 187.293 49.5822 186.028C49.8211 185.818 50.1059 185.666 50.4141 185.585C52.9275 184.728 55.6486 184.685 58.1878 185.464C58.8734 185.676 59.5421 185.938 60.1886 186.25Z" fill="#9C5240"/>
<path d="M58.4316 224.534H11.0008C10.6301 224.535 10.2628 224.463 9.92006 224.322C9.5773 224.182 9.26577 223.975 9.0033 223.714C8.74084 223.453 8.5326 223.143 8.39052 222.802C8.24844 222.461 8.1753 222.095 8.1753 221.725C8.17436 221.355 8.24679 220.989 8.38845 220.647C8.53011 220.305 8.7382 219.994 9.00076 219.732C9.26332 219.471 9.57517 219.263 9.9184 219.122C10.2616 218.981 10.6295 218.909 11.0008 218.91H58.4316C58.8023 218.91 59.1694 218.983 59.5118 219.124C59.8542 219.266 60.1652 219.473 60.427 219.735C60.6888 219.996 60.8963 220.307 61.0375 220.648C61.1787 220.99 61.2509 221.356 61.2499 221.725C61.2499 222.47 60.953 223.185 60.4245 223.711C59.8959 224.238 59.1791 224.534 58.4316 224.534Z" fill="black"/>
<path d="M52.1711 187.457V170.863C52.1711 168.365 50.1388 166.339 47.6317 166.339H10.5275C8.02047 166.339 5.98812 168.365 5.98812 170.863V187.457C5.98812 189.956 8.02047 191.981 10.5275 191.981H47.6317C50.1388 191.981 52.1711 189.956 52.1711 187.457Z" fill="black"/>
<path d="M14.7728 187.815H11.9043V221.933H14.7728V187.815Z" fill="black"/>
<path d="M45.7169 187.815H42.8484V221.933H45.7169V187.815Z" fill="black"/>
<path d="M34.6588 223.119H31.7903V264.562H34.6588V223.119Z" fill="black"/>
<path d="M13.1019 223.119H10.2334V264.562H13.1019V223.119Z" fill="black"/>
<path d="M59.0841 223.119H56.2156V264.562H59.0841V223.119Z" fill="black"/>
<path d="M44.3614 223.119H41.4929V264.562H44.3614V223.119Z" fill="black"/>
<path d="M87.7764 237.662C86.1557 238.005 85.0369 238.084 83.115 238.377C80.3182 238.77 77.5143 239.092 74.7031 239.335C75.4203 244.373 76.1374 248.804 76.2736 249.697C76.9908 253.556 76.6035 263.226 78.3318 266.892C80.433 267.149 82.2545 266.806 84.2266 266.649C85.2664 256.951 86.127 247.253 87.7764 237.662Z" fill="#CF9378"/>
<path d="M73.147 246.153C73.131 246.945 73.191 247.737 73.3263 248.518C75.6721 250.798 78.7928 252.114 82.0681 252.206C83.8967 252.295 85.7264 252.053 87.4681 251.491C87.6689 247.718 87.8936 243.944 88.1422 240.171C88.4577 235.261 88.7087 230.359 89.3254 225.477C89.7615 221.089 89.7855 216.67 89.3971 212.278C88.1422 207.482 84.9438 206.174 84.9438 206.174C84.9438 206.174 76.0084 202.651 69.167 201.172C60.7622 199.335 52.2212 197.97 43.7735 196.169C39.7145 195.283 32.9233 195.454 30.8652 199.871C28.4341 204.988 33.2747 211.799 37.1687 214.75C41.199 217.809 46.1687 219.353 51.1169 220.432C58.1179 221.927 65.2723 222.589 72.4299 222.404C72.2004 222.404 73.147 244.38 73.147 246.153Z" fill="#66A3F2"/>
<path d="M72.4298 222.447C72.4298 222.447 72.4298 222.447 72.4657 222.412C70.9095 220.861 69.4322 219.224 67.876 217.68C65.5525 215.386 63.2936 213.014 60.9844 210.705C56.402 206.103 51.7909 201.529 47.3088 196.834L43.7805 196.119C39.7216 195.233 32.9304 195.404 30.8722 199.821C28.4412 204.938 33.2818 211.749 37.1758 214.7C41.2061 217.759 46.1758 219.303 51.1239 220.382C58.1206 221.894 65.2726 222.573 72.4298 222.404C72.4278 222.419 72.4278 222.433 72.4298 222.447Z" fill="black"/>
<path d="M72.4873 223.805C72.4873 221.568 72.7957 218.838 72.8028 216.601" stroke="black" stroke-width="0.4" stroke-miterlimit="10"/>
<path d="M78.253 203.995C72.2435 202.065 66.779 200.286 57.9368 199.099" stroke="black" stroke-width="0.75" stroke-miterlimit="10"/>
<path d="M77.2992 269.615H96.5326V271.687H77.9876C77.7974 271.687 77.615 271.612 77.4805 271.478C77.3461 271.344 77.2705 271.162 77.2705 270.973V269.586L77.2992 269.615Z" fill="#B3B3B3"/>
<path d="M96.2671 270.179C96.3353 270.082 96.3953 269.979 96.4464 269.872C96.6263 269.337 96.6286 268.758 96.453 268.221C96.2773 267.685 95.9331 267.219 95.4711 266.892C94.5112 266.225 93.4257 265.758 92.2799 265.52C89.9128 264.797 87.4972 264.243 85.0512 263.862C84.3987 263.769 77.3923 263.147 77.4282 262.818C77.3206 264.577 77.2059 266.335 77.0983 268.093C76.9698 268.782 76.9698 269.49 77.0983 270.179H96.2671Z" fill="black"/>
<path d="M80.6123 261.368C81.1648 260.947 81.8361 260.711 82.5312 260.691C83.2262 260.672 83.9096 260.871 84.4848 261.261C85.0476 261.665 85.499 262.205 85.7973 262.829C86.0956 263.454 86.2312 264.143 86.1915 264.834C86.2006 264.964 86.1831 265.094 86.1399 265.217C86.0968 265.34 86.0289 265.453 85.9405 265.548C85.7311 265.693 85.477 265.759 85.2234 265.734L81.9103 265.777C81.1931 265.777 80.3469 265.942 79.8665 265.327C79.0059 264.226 79.7876 262.211 80.6123 261.368Z" fill="black"/>
<path d="M87.8983 264.355C87.5727 264.326 87.2466 264.403 86.9687 264.575C86.6908 264.746 86.476 265.002 86.3564 265.305" stroke="#B3B3B3" stroke-width="0.75" stroke-miterlimit="10" stroke-linecap="round"/>
<path d="M88.2927 266.042C88.4669 265.764 88.7075 265.534 88.9928 265.372C89.2782 265.21 89.5994 265.121 89.9278 265.112" stroke="#B3B3B3" stroke-width="0.75" stroke-miterlimit="10" stroke-linecap="round"/>
<path d="M90.731 266.306C90.8084 266.1 90.9462 265.921 91.1264 265.794C91.3067 265.667 91.5212 265.596 91.7421 265.591" stroke="#B3B3B3" stroke-width="0.75" stroke-miterlimit="10" stroke-linecap="round"/>
<path d="M55.936 235.054C53.4691 235.397 50.9998 235.683 48.5281 235.911C50.3998 245.088 51.2603 254.421 52.7878 263.655C54.889 263.655 56.8037 263.204 59.034 263.254C59.4643 260.46 60.3177 243.859 61.6372 234.125C59.758 234.552 57.8539 234.863 55.936 235.054Z" fill="#CF9378"/>
<path d="M48.865 248.118C49.3742 250.183 49.9694 251.448 52.0132 252.256C53.7891 252.964 55.7108 253.234 57.614 253.042C59.3233 252.768 60.9225 252.026 62.2323 250.898C62.2323 250.898 64.8713 211.742 61.594 206.725C57.5781 200.586 48.8005 199.328 41.9519 197.827C35.9639 196.519 29.897 195.447 23.8444 194.254C22.3672 199.835 23.4357 206.403 25.5727 211.549L25.6086 211.627C26.4615 213.61 27.8411 215.324 29.5989 216.583C31.3567 217.842 33.426 218.6 35.5838 218.774C38.7889 219.045 42.0062 219.146 45.222 219.074C45.179 219.11 47.0435 240.721 48.865 248.118Z" fill="#66A3F2"/>
<path d="M45.2795 220.511C45.2795 218.274 45.5879 215.544 45.5951 213.307" stroke="black" stroke-width="0.4" stroke-miterlimit="10"/>
<path d="M52.2572 269.315H71.4906V271.387H52.9456C52.7554 271.387 52.573 271.312 52.4386 271.178C52.3041 271.044 52.2285 270.862 52.2285 270.673V269.286L52.2572 269.315Z" fill="#B3B3B3"/>
<path d="M71.218 269.879C71.291 269.784 71.3535 269.681 71.4044 269.572C71.5849 269.038 71.5875 268.46 71.4118 267.924C71.2361 267.389 70.8914 266.924 70.4291 266.599C69.4713 265.926 68.3851 265.457 67.2379 265.22C64.8708 264.497 62.4552 263.943 60.0092 263.562C59.3567 263.469 52.3503 262.847 52.379 262.518L52.0563 267.792C51.9236 268.482 51.9236 269.19 52.0563 269.879H71.218Z" fill="black"/>
<path d="M55.5703 261.068C56.1217 260.648 56.7918 260.411 57.4856 260.392C58.1793 260.373 58.8616 260.572 59.4356 260.96C59.9993 261.365 60.4517 261.904 60.7512 262.529C61.0508 263.153 61.1877 263.843 61.1495 264.534C61.157 264.663 61.1387 264.793 61.0956 264.916C61.0525 265.039 60.9856 265.152 60.8985 265.248C60.6869 265.388 60.4339 265.451 60.1814 265.427L56.8683 265.47C56.1512 265.47 55.3049 265.634 54.8245 265.02C53.9639 263.926 54.7456 261.882 55.5703 261.068Z" fill="black"/>
<path d="M62.8492 264.069C62.5239 264.042 62.1982 264.119 61.9206 264.29C61.6429 264.461 61.4279 264.717 61.3074 265.02" stroke="#B3B3B3" stroke-width="0.75" stroke-miterlimit="10" stroke-linecap="round"/>
<path d="M63.2507 265.741C63.4249 265.464 63.6655 265.234 63.9508 265.072C64.2362 264.91 64.5574 264.82 64.8858 264.812" stroke="#B3B3B3" stroke-width="0.75" stroke-miterlimit="10" stroke-linecap="round"/>
<path d="M65.6816 266.006C65.762 265.8 65.9015 265.623 66.0826 265.495C66.2638 265.368 66.4785 265.297 66.7 265.291" stroke="#B3B3B3" stroke-width="0.75" stroke-miterlimit="10" stroke-linecap="round"/>
<path d="M23.0342 201.851C23.2064 202.751 23.3785 203.652 23.5434 204.552C26.6629 202.916 30.3991 203.259 33.9274 203.251C41.6788 203.229 49.3084 201.328 56.1584 197.713C55.7016 195.852 55.4231 193.952 55.3265 192.038C55.3265 190.08 54.5018 188.186 54.5018 186.221C54.3727 183.57 54.5018 180.911 54.6094 178.267C54.8604 173.264 55.1974 168.169 54.258 163.259C53.6906 160.018 52.4043 156.944 50.4931 154.261C49.5967 153.054 48.3417 151.489 46.9791 150.788C45.6166 150.088 43.329 150.295 41.6939 150.152C40.5035 150 39.2986 150 38.1083 150.152C36.6544 150.471 35.2715 151.052 34.0278 151.867C27.251 155.898 26.3904 162.444 24.3824 169.498C23.3641 173.014 21.7578 176.344 20.7394 179.868C20.1755 181.835 19.9191 183.876 19.9793 185.921C20.0223 187.772 20.7323 189.423 21.0765 191.238C21.7219 194.778 22.3745 198.316 23.0342 201.851Z" fill="white"/>
<path d="M42.2461 156.57C43.5201 157.641 45.1572 158.186 46.8214 158.092C47.3978 158.093 47.9609 157.919 48.4349 157.592C48.6669 157.424 48.8412 157.19 48.9337 156.92C49.0261 156.65 49.0323 156.357 48.9512 156.084" stroke="black" stroke-width="0.4" stroke-miterlimit="10" stroke-linecap="round"/>
<path d="M40.6826 171.328C41.4323 173.735 42.7277 175.939 44.4686 177.768C46.2095 179.597 48.3493 181.003 50.7224 181.876" stroke="black" stroke-width="0.4" stroke-miterlimit="10" stroke-linecap="round"/>
<path d="M45.0859 175.065C46.3384 176.547 48.1104 177.498 50.0413 177.724" stroke="black" stroke-width="0.4" stroke-miterlimit="10" stroke-linecap="round"/>
<path d="M36.4158 174.772C38.1726 180.288 41.2719 185.284 45.4372 189.316" stroke="black" stroke-width="0.4" stroke-miterlimit="10" stroke-linecap="round"/>
<path d="M52.042 156.298C53.9926 159.643 54.0213 161.551 54.4587 164.503C54.9499 167.814 55.1753 171.16 55.1328 174.508C55.0539 180.104 53.8133 185.228 55.0683 190.781" stroke="black" stroke-width="0.4" stroke-miterlimit="10"/>
<path d="M47.9614 149.087C48.2531 148.157 48.6602 147.266 49.1734 146.436C47.6552 146.395 46.185 145.897 44.9567 145.007C44.3484 144.563 43.7819 144.066 43.2642 143.52C43.0706 143.327 42.7838 142.841 42.4897 142.498C42.1742 145.857 40.9192 149.023 38.0364 150.945C39.0857 152.684 40.5906 154.105 42.3893 155.055C43.8881 155.927 47.6315 157.599 47.7176 154.569C47.7176 153.575 47.3447 152.661 47.4308 151.653C47.5106 150.781 47.6887 149.92 47.9614 149.087Z" fill="#CF9378"/>
<path d="M47.4236 151.924C47.4236 151.832 47.4236 151.746 47.4236 151.653C47.6044 149.806 48.2 148.023 49.1663 146.436C47.6481 146.395 46.1779 145.897 44.9495 145.007C44.3413 144.563 43.7748 144.066 43.2571 143.52C43.0635 143.327 42.7766 142.841 42.4826 142.498C42.4324 142.991 42.3679 143.477 42.2747 143.927C42.4272 145.574 42.9746 147.16 43.8706 148.552C44.7667 149.943 45.9853 151.1 47.4236 151.924Z" fill="#9C5240"/>
<path d="M25.3361 156.863C22.6684 159.907 21.5712 164.009 20.6676 167.847C19.4963 172.807 18.3226 177.769 17.1465 182.734C16.7449 184.449 16.0923 186.8 16.4724 188.558C16.9599 190.512 18.2057 192.193 19.9361 193.232C21.7074 194.29 24.4038 194.776 26.3903 193.875C28.3767 192.975 30.4779 192.088 31.862 190.423C32.9376 189.13 33.2962 187.4 33.5902 185.742C34.0205 183.47 34.4436 181.197 34.8739 178.924C36.6165 169.634 38.3591 160.05 36.387 150.802C32.0828 151.405 28.1505 153.562 25.3361 156.863Z" fill="white"/>
<path d="M36.4445 166.089C32.5648 167.097 32.909 172.042 32.5576 175.094C32.0412 179.6 31.1805 184.061 29.9832 188.436" stroke="black" stroke-width="0.4" stroke-miterlimit="10"/>
<path d="M33.533 168.633C33.9597 167.285 34.7662 166.087 35.8565 165.181" stroke="black" stroke-width="0.4" stroke-miterlimit="10"/>
<path d="M31.238 187.172C33.3177 187.622 35.3615 188.286 37.3981 188.901C40.6395 189.88 43.924 190.445 47.2156 191.317C48.1483 191.597 49.1113 191.765 50.0841 191.817C51.7478 191.817 53.3614 191.159 55.0251 191.102C56.1389 191.103 57.2348 191.381 58.2138 191.91C59.1929 192.439 60.0244 193.203 60.6331 194.132C62.6697 197.234 59.292 196.405 57.1693 196.369L52.1996 196.298C45.7865 196.239 39.3745 196.501 32.9878 197.084C29.4021 197.377 23.2492 198.206 20.0795 196.112C18.5448 195.09 16.0134 190.123 17.4261 188.644C17.7079 188.382 18.043 188.185 18.4086 188.065C21.6086 186.801 25.0691 186.333 28.4914 186.7C29.4155 186.803 30.3326 186.96 31.238 187.172Z" fill="#CF9378"/>
<path d="M85.8259 203.337H42.7911C42.3118 203.337 41.9233 203.724 41.9233 204.202V204.502C41.9233 204.98 42.3118 205.367 42.7911 205.367H85.8259C86.3051 205.367 86.6936 204.98 86.6936 204.502V204.202C86.6936 203.724 86.3051 203.337 85.8259 203.337Z" fill="black"/>
<path d="M91.2187 205.36H52.96L56.2874 183.455C56.3402 183.091 56.5214 182.757 56.7986 182.513C57.0759 182.27 57.431 182.132 57.8006 182.126H93.0259C93.24 182.131 93.4504 182.182 93.6429 182.276C93.8354 182.369 94.0055 182.503 94.1416 182.667C94.2776 182.832 94.3765 183.024 94.4315 183.231C94.4865 183.437 94.4962 183.652 94.4601 183.863L91.2187 205.36Z" fill="#0F89F9"/>
<path d="M75.2481 195.826C76.6502 195.826 77.7867 194.693 77.7867 193.296C77.7867 191.899 76.6502 190.766 75.2481 190.766C73.8461 190.766 72.7095 191.899 72.7095 193.296C72.7095 194.693 73.8461 195.826 75.2481 195.826Z" fill="white"/>
<path d="M55.5416 135.144C55.1041 133.443 53.2754 134.923 51.6045 134.351C50.1703 133.858 49.0516 133.408 47.5026 133.679C46.0952 133.891 44.8172 134.617 43.9169 135.716C43.6803 136.016 43.4651 136.323 43.2715 136.624C42.7471 137.71 42.3223 138.841 42.0022 140.004V140.075C42.0761 142.228 42.7955 144.309 44.0675 146.05C44.634 146.88 45.4128 147.543 46.3232 147.971C47.2336 148.4 48.2425 148.578 49.2452 148.487C50.3901 148.356 51.4493 147.818 52.2284 146.972C53.076 146.018 53.7462 144.922 54.2077 143.734C54.9607 141.926 56.022 137.017 55.5416 135.144Z" fill="#CF9378"/>
<path d="M47.4739 136.809C47.4739 136.738 47.4882 136.652 47.5169 136.552L47.9687 134.408C49.7687 135.745 51.7193 137.653 54.0499 138.425C54.9207 138.701 55.8561 138.703 56.7277 138.429C57.5994 138.155 58.3649 137.619 58.9192 136.895C59.1126 136.63 59.2807 136.348 59.4212 136.052C59.5122 135.796 59.6175 135.545 59.7367 135.301C59.4001 135.474 59.0138 135.525 58.6437 135.446C58.2736 135.366 57.9426 135.161 57.7073 134.866C57.2608 134.257 56.919 133.578 56.6961 132.857C56.0278 131.201 54.8981 129.771 53.4404 128.734C51.9783 127.712 50.197 127.248 48.4205 127.426C47.3043 127.559 46.2431 127.983 45.344 128.655C44.8956 128.983 44.5012 129.378 44.1751 129.827C44.0245 130.034 43.3862 131.178 43.6444 131.392C43.4318 131.252 43.1824 131.177 42.9273 131.177C42.6722 131.177 42.4228 131.252 42.2101 131.392C41.7794 131.686 41.4313 132.084 41.199 132.55C40.1038 134.49 39.697 136.741 40.0444 138.939C40.2255 139.874 40.5142 140.786 40.905 141.655C41.199 142.369 41.6795 143.22 42.5759 143.241C43.8237 143.241 43.6803 141.19 44.0101 140.118C44.1464 139.697 44.1177 139.168 44.6197 139.039C45.1217 138.91 45.9535 139.882 46.348 139.089C46.4486 138.785 46.4486 138.457 46.348 138.153C46.2469 137.85 46.2674 137.519 46.4053 137.231C46.4053 137.231 47.0651 137.231 47.1655 137.231C47.255 137.202 47.3331 137.146 47.3886 137.07C47.444 136.994 47.4738 136.903 47.4739 136.809Z" fill="black"/>
<path d="M44.4047 128.198C43.9239 128.851 43.6238 129.619 43.5345 130.424C43.4451 131.229 43.5696 132.044 43.8955 132.786" stroke="black" stroke-width="0.75" stroke-miterlimit="10" stroke-linecap="round"/>
<path d="M40.9766 130.978C41.3799 130.743 41.8526 130.654 42.314 130.727C42.7755 130.8 43.1974 131.03 43.508 131.378" stroke="black" stroke-width="0.75" stroke-miterlimit="10" stroke-linecap="round"/>
<path d="M50.8587 141.498C51.1676 141.498 51.418 141.248 51.418 140.94C51.418 140.632 51.1676 140.383 50.8587 140.383C50.5497 140.383 50.2993 140.632 50.2993 140.94C50.2993 141.248 50.5497 141.498 50.8587 141.498Z" fill="black"/>
<path d="M50.4211 139.439C50.7859 139.314 51.1823 139.314 51.547 139.439" stroke="black" stroke-width="0.75" stroke-miterlimit="10" stroke-linecap="round"/>
<path d="M54.9464 141.512C54.9464 141.66 54.8874 141.801 54.7825 141.906C54.6776 142.011 54.5353 142.069 54.387 142.069C54.2386 142.069 54.0964 142.011 53.9915 141.906C53.8866 141.801 53.8276 141.66 53.8276 141.512C53.8276 141.364 53.8866 141.222 53.9915 141.118C54.0964 141.013 54.2386 140.954 54.387 140.954C54.5353 140.954 54.6776 141.013 54.7825 141.118C54.8874 141.222 54.9464 141.364 54.9464 141.512Z" fill="black"/>
<path d="M53.9568 140.004C54.3192 139.879 54.7131 139.879 55.0755 140.004" stroke="black" stroke-width="0.75" stroke-miterlimit="10" stroke-linecap="round"/>
<path d="M52.9384 141.776C52.8672 142.282 52.9986 142.796 53.3042 143.206C53.3978 143.297 53.4562 143.419 53.4691 143.549C53.4584 143.616 53.4272 143.678 53.3797 143.726C53.3322 143.775 53.2707 143.808 53.2038 143.82C53.0666 143.849 52.925 143.849 52.7878 143.82" stroke="black" stroke-width="0.75" stroke-miterlimit="10" stroke-linecap="round"/>
<path d="M50.4211 144.828C50.6835 145.054 50.9949 145.216 51.331 145.302C51.667 145.387 52.0184 145.394 52.3574 145.321" stroke="black" stroke-width="0.75" stroke-miterlimit="10" stroke-linecap="round"/>
<path d="M41.8515 139.932C41.8572 140.335 41.9823 140.728 42.211 141.06C42.4398 141.392 42.7621 141.65 43.1373 141.8C43.5125 141.951 43.924 141.987 44.3199 141.905C44.7159 141.823 45.0786 141.626 45.3626 141.339C45.6466 141.052 45.8391 140.688 45.9159 140.292C45.9928 139.897 45.9505 139.487 45.7945 139.115C45.6384 138.743 45.3756 138.426 45.0389 138.203C44.7023 137.979 44.3069 137.86 43.9025 137.86C43.6307 137.86 43.3617 137.914 43.1109 138.018C42.8602 138.123 42.6328 138.276 42.442 138.469C42.2512 138.661 42.1007 138.89 41.9993 139.141C41.898 139.393 41.8477 139.662 41.8515 139.932Z" fill="#CF9378"/>
<path d="M43.5009 139.053C43.6512 139.033 43.8042 139.051 43.9453 139.107C44.0865 139.162 44.2111 139.252 44.3074 139.369C44.4037 139.485 44.4684 139.625 44.4955 139.774C44.5225 139.922 44.5109 140.075 44.4619 140.218C44.3727 140.135 44.2603 140.081 44.1396 140.063C44.0188 140.045 43.8955 140.064 43.7858 140.118C43.6762 140.171 43.5855 140.257 43.5256 140.363C43.4658 140.469 43.4397 140.59 43.4507 140.711" stroke="black" stroke-width="0.75" stroke-linecap="round" stroke-linejoin="round"/>
<path d="M271.411 256.772C271.354 256.515 264.032 257.787 263.222 257.916L263.128 257.987C260.597 260.131 257.391 261.303 254.243 262.433C253.744 262.571 253.288 262.831 252.917 263.19C251.482 264.862 254.516 265.577 255.591 265.67C257.342 265.724 259.091 265.553 260.798 265.163C264.326 264.541 267.919 264.741 271.411 263.883C271.476 263.884 271.54 263.87 271.599 263.844C271.659 263.818 271.712 263.78 271.755 263.732C271.798 263.684 271.831 263.628 271.851 263.566C271.871 263.505 271.877 263.44 271.87 263.376C272.061 261.164 271.906 258.937 271.411 256.772Z" fill="black"/>
<path d="M255.376 205.453C257.148 223.019 260.396 241.043 262.39 258.595C266.521 258.945 268.019 258.673 272.028 258.002C274.66 238.906 275.771 229.694 273.398 210.334C273.154 208.347 273.398 191.881 273.297 189.766C272.874 177.181 274.56 162.816 266.979 152.182C265.058 149.502 261.924 147.444 258.733 147.687C257.634 147.793 256.572 148.142 255.625 148.706C254.678 149.271 253.868 150.038 253.254 150.953C249.338 156.255 251.525 170.656 252.221 176.945C253.146 185.278 254.537 197.077 255.376 205.453Z" fill="#0F89F9"/>
<path d="M256.624 216.38C257.341 213.335 258.216 210.319 259.077 207.311C262.089 196.791 263.336 185.971 264.85 175.151C265.272 172.594 265.495 170.009 265.517 167.418C265.474 164.795 265.122 162.151 264.914 159.557C264.701 155.977 264.204 152.418 263.43 148.916C262.024 148.045 260.385 147.624 258.733 147.708C257.634 147.815 256.572 148.163 255.625 148.728C254.678 149.293 253.868 150.06 253.254 150.974C249.338 156.277 251.525 170.677 252.221 176.966C253.146 185.299 254.537 197.098 255.376 205.474C255.742 209.033 256.165 212.692 256.624 216.38Z" fill="#545D78"/>
<path d="M243.171 259.209C243.1 259.199 243.027 259.199 242.956 259.209C240.606 259.488 238.231 259.474 235.885 259.167C235.586 259.117 235.28 259.117 234.981 259.167C234.725 259.247 234.483 259.368 234.264 259.524C232.059 260.858 229.629 261.78 227.093 262.247C225.659 262.511 224.081 262.661 222.926 263.583C222.388 264.012 221.965 264.812 222.374 265.363C222.529 265.54 222.723 265.679 222.941 265.77C225.142 266.799 228.47 266.399 230.829 266.27C234.651 266.056 238.438 266.27 242.21 265.556C242.365 265.532 242.512 265.473 242.64 265.384C242.797 265.225 242.897 265.019 242.927 264.798C243.173 263.759 243.362 262.706 243.494 261.646C243.544 261.225 243.78 259.717 243.494 259.367C243.457 259.315 243.409 259.274 243.352 259.247C243.296 259.219 243.234 259.206 243.171 259.209Z" fill="black"/>
<path d="M252.522 150.102C243.831 149.959 241.17 159 240.137 165.953C237.948 180.637 236.415 195.407 235.541 210.262C235.103 217.63 234.522 223.841 234.278 231.245C234.02 238.82 233.604 251.97 233.934 259.474C233.928 259.626 233.971 259.776 234.056 259.903C234.119 259.962 234.194 260.008 234.275 260.039C234.356 260.07 234.443 260.084 234.529 260.081C237.717 260.423 240.929 260.468 244.125 260.217C244.276 260.217 244.424 260.177 244.555 260.103C244.691 260.003 243.465 259.524 243.515 259.388C245.96 251.863 247.639 238.413 248.406 230.551C250.005 214.114 253.426 198.106 259.586 182.912C265.739 168.526 269.217 150.367 252.522 150.102Z" fill="#0F89F9"/>
<path d="M256.086 191.788C259.576 183.486 262.572 174.986 265.058 166.332" stroke="black" stroke-width="0.75" stroke-miterlimit="10"/>
<path d="M254.229 169.577H254.315C255.111 169.705 255.907 169.827 256.703 169.927C257.291 169.998 257.879 170.055 258.467 170.113L259.048 170.163C259.536 170.206 260.03 170.241 260.482 170.263L261.321 170.306H261.974C265.727 170.427 269.483 170.163 273.183 169.519C272.63 162.88 271.175 156.484 267.302 151.067C265.387 148.38 262.246 146.322 259.055 146.572C257.957 146.676 256.897 147.022 255.95 147.586C255.004 148.15 254.195 148.916 253.583 149.831C253.28 150.249 253.022 150.7 252.816 151.174C245.265 151.003 241.93 158.585 240.245 164.981C241.962 165.979 243.776 166.8 245.659 167.433C248.447 168.395 251.315 169.113 254.229 169.577Z" fill="#545D78"/>
<path d="M258.015 102.884C258.069 101.912 257.999 100.938 257.807 99.9829C259.246 100.465 260.796 100.509 262.261 100.112C262.986 99.9029 263.691 99.6328 264.369 99.304C264.613 99.1896 265.086 98.8394 265.452 98.5893C264.57 101.855 264.635 105.257 266.664 108.059C265.073 109.322 263.166 110.13 261.149 110.395C259.435 110.689 255.341 110.96 256.323 108.087C256.646 107.151 257.341 106.429 257.614 105.457C257.839 104.616 257.974 103.754 258.015 102.884Z" fill="#F7B699"/>
<path d="M261.981 100.176C260.599 100.502 259.153 100.436 257.808 99.9829C257.999 100.938 258.069 101.912 258.015 102.884C257.975 103.761 257.841 104.631 257.614 105.479L257.528 105.729L258.03 105.65C259.933 104.326 261.326 102.395 261.981 100.176Z" fill="#C46E58"/>
<path d="M255.8 87.1833C256.804 85.754 258.001 87.7622 259.758 87.8122C261.293 87.8479 262.483 87.8122 263.839 88.6055C265.079 89.2943 266.02 90.4173 266.478 91.7571C266.595 92.1114 266.693 92.4716 266.772 92.8363C266.879 94.025 266.879 95.2209 266.772 96.4096V96.4882C265.949 98.477 264.548 100.175 262.749 101.362C261.923 101.947 260.956 102.301 259.947 102.387C258.938 102.472 257.924 102.286 257.011 101.848C255.989 101.322 255.188 100.451 254.753 99.3897C254.292 98.2012 254.049 96.9402 254.035 95.6663C253.964 93.7368 254.688 88.7699 255.8 87.1833Z" fill="#F7B699"/>
<path d="M257.786 90.5279C256.409 90.728 255.283 90.9424 254.021 90.2063C253.055 89.6408 252.336 88.7359 252.006 87.6693C251.92 87.3535 251.862 87.0306 251.834 86.7045C251.834 86.5616 251.834 85.9898 251.834 85.8969C252.088 86.1756 252.433 86.3567 252.807 86.4089C253.182 86.4611 253.563 86.3811 253.885 86.1828C254.518 85.7703 255.078 85.2559 255.541 84.6606C256.741 83.3363 258.3 82.3878 260.031 81.9306C261.766 81.4751 263.608 81.6631 265.215 82.4594C266.216 82.9701 267.063 83.7372 267.668 84.682C267.982 85.1458 268.224 85.6542 268.385 86.1899C268.45 86.4329 268.643 87.7193 268.328 87.8408C268.579 87.7707 268.846 87.7782 269.093 87.8624C269.34 87.9466 269.556 88.1036 269.712 88.3125C270.015 88.7337 270.203 89.2263 270.257 89.7418C270.514 91.4806 270.294 93.2564 269.619 94.8802C269.088 96.0451 268.528 97.3244 267.876 98.4535C267.332 99.4437 266.509 100.254 265.509 100.783C264.182 101.295 262.746 101.465 261.336 101.276C260.731 101.312 260.129 101.16 259.615 100.839C259.101 100.519 258.7 100.048 258.467 99.4898C258.248 98.8913 258.127 98.2615 258.109 97.6245C258.109 97.3601 257.965 95.5234 258.18 95.4162C257.923 95.5694 257.638 95.669 257.341 95.7092C257.192 95.7287 257.04 95.7047 256.904 95.64C256.767 95.5753 256.653 95.4728 256.574 95.3447C256.486 95.0755 256.499 94.7835 256.61 94.5229C256.99 93.1865 257.384 91.8572 257.786 90.5279Z" fill="black"/>
<path d="M268.665 84.5533C268.885 85.3315 268.896 86.1537 268.697 86.9376C268.498 87.7214 268.097 88.4395 267.532 89.02" stroke="black" stroke-width="0.75" stroke-miterlimit="10" stroke-linecap="round"/>
<path d="M270.902 88.3482C270.608 87.9868 270.196 87.7386 269.739 87.646C269.281 87.5535 268.805 87.6223 268.392 87.8408" stroke="black" stroke-width="0.75" stroke-miterlimit="10" stroke-linecap="round"/>
<path d="M261.035 96.4096C260.894 96.7891 260.643 97.1185 260.314 97.3559C259.986 97.5934 259.594 97.7283 259.188 97.7435C258.782 97.7587 258.381 97.6536 258.035 97.4414C257.69 97.2293 257.415 96.9196 257.246 96.5518C257.077 96.1839 257.021 95.7742 257.086 95.3748C257.151 94.9754 257.333 94.6041 257.61 94.308C257.887 94.0119 258.245 93.8043 258.64 93.7115C259.036 93.6188 259.45 93.6449 259.83 93.7868C260.338 93.9763 260.75 94.3587 260.976 94.8503C261.201 95.3418 261.223 95.9025 261.035 96.4096Z" fill="#F7B699"/>
<path d="M259.801 95.0374C259.669 94.9673 259.521 94.9307 259.371 94.9307C259.221 94.9307 259.073 94.9673 258.941 95.0374C258.816 95.1127 258.712 95.2171 258.637 95.3417C258.562 95.4662 258.518 95.6071 258.51 95.7521C258.622 95.7103 258.744 95.7016 258.861 95.7269C258.978 95.7523 259.085 95.8106 259.17 95.895C259.251 95.9849 259.304 96.096 259.323 96.2152C259.342 96.3343 259.326 96.4563 259.278 96.5668" stroke="black" stroke-width="0.75" stroke-linecap="round" stroke-linejoin="round"/>
<path d="M232.579 119.593C232.639 119.271 232.783 118.969 232.995 118.719C233.208 118.468 233.482 118.277 233.791 118.164C234.422 117.942 235.49 117.942 235.706 117.306C235.806 116.992 235.914 116.87 235.655 116.656C235.389 116.453 235.065 116.34 234.73 116.334C234.212 116.31 233.697 116.43 233.245 116.683C232.792 116.936 232.42 117.31 232.17 117.764C232.02 118.042 231.804 118.4 231.503 118.314C231.434 118.285 231.372 118.242 231.32 118.188C231.268 118.134 231.228 118.07 231.202 117.999C230.843 117.163 231.338 116.227 231.819 115.455C232.155 114.814 232.648 114.269 233.253 113.869C233.989 113.534 234.807 113.425 235.605 113.554C237.219 113.662 238.918 113.783 240.288 114.748C240.647 114.998 241.005 115.291 241.328 115.541C242.277 116.147 243.311 116.607 244.397 116.906C244.067 118.064 243.73 119.214 243.4 120.365C243.4 120.422 243.357 120.494 243.307 120.522C243.245 120.547 243.176 120.547 243.114 120.522C241.149 120.043 238.882 119.643 236.91 119.336C235.462 119.208 234.002 119.295 232.579 119.593Z" fill="#F7B699"/>
<path d="M243.386 114.355C241.575 116.636 240.628 119.48 240.711 122.388L244.498 123.895C244.935 121.902 245.365 119.908 245.803 117.921C245.932 117.321 246.47 116.041 246.125 115.548C245.781 115.055 243.996 114.619 243.386 114.355Z" fill="white"/>
<path d="M256.402 119.079C255.358 118.437 254.27 117.869 253.146 117.378C251.196 116.506 249.152 115.791 247.194 115.112C246.448 114.824 245.684 114.586 244.906 114.398C242.755 116.663 242.038 120.508 242.289 123.724C244.533 125.689 247.818 126.847 250.292 128.391C251.649 129.309 253.09 130.099 254.595 130.749C256.105 131.407 257.791 131.552 259.392 131.164C259.81 131.069 260.202 130.887 260.544 130.631C260.887 130.375 261.171 130.05 261.379 129.677C261.575 129.182 261.659 128.65 261.623 128.119C261.553 126.303 261.042 124.532 260.132 122.957C259.223 121.382 257.942 120.051 256.402 119.079Z" fill="#545D78"/>
<path d="M219.441 131.65C219.015 130.905 218.757 130.077 218.685 129.223C218.613 128.368 218.729 127.509 219.025 126.704C219.113 126.398 219.268 126.116 219.479 125.878C219.69 125.639 219.951 125.45 220.244 125.325C220.619 125.247 221.009 125.283 221.363 125.428C221.717 125.574 222.019 125.821 222.231 126.139C222.638 126.783 222.963 127.474 223.199 128.198C223.515 128.963 223.929 129.684 224.432 130.342C225.033 130.943 225.48 131.678 225.738 132.486C225.793 132.82 225.768 133.163 225.664 133.486C225.561 133.809 225.382 134.103 225.142 134.344C223.328 136.13 220.302 133.193 219.441 131.65Z" fill="#F7B699"/>
<path d="M239.714 130.563L228.835 135.823L214.436 122.802L225.322 117.542L239.714 130.563Z" fill="#F4AE2D"/>
<path d="M237.936 130.02L228.592 134.537L216.149 123.288L225.501 118.771L237.936 130.02Z" fill="white"/>
<path d="M226.921 121.151L219.154 124.903L218.394 124.217L226.161 120.465L226.921 121.151Z" fill="black"/>
<path d="M230.887 124.739L223.12 128.491L222.36 127.805L230.126 124.053L230.887 124.739Z" fill="black"/>
<path d="M232.199 125.932L224.432 129.684L223.679 128.998L231.446 125.246L232.199 125.932Z" fill="black"/>
<path d="M233.518 127.119L225.752 130.871L224.992 130.184L232.758 126.432L233.518 127.119Z" fill="black"/>
<path d="M234.831 128.305L227.064 132.057L226.304 131.378L234.07 127.626L234.831 128.305Z" fill="black"/>
<path d="M236.143 129.498L228.377 133.25L227.616 132.564L235.39 128.812L236.143 129.498Z" fill="black"/>
<path d="M225.035 119.829L218.502 122.988L215.726 120.472L222.259 117.321L225.035 119.829Z" fill="black"/>
<path d="M220.553 130.463C220.444 130.589 220.346 130.723 220.259 130.863C219.434 132.178 221.026 133.408 222.044 134.115C224.339 135.73 227.15 136.502 229.825 137.274C231.331 137.717 235.691 136.645 234.487 134.287C233.662 132.671 231.231 131.75 229.632 131.314C227.968 131.006 226.548 130.313 225.924 128.641C225.652 127.926 225.537 127.097 225.293 126.34C225.25 126.148 225.153 125.972 225.013 125.832C224.945 125.762 224.854 125.717 224.756 125.705C224.658 125.693 224.559 125.716 224.475 125.768C224.395 125.846 224.338 125.945 224.31 126.054C223.844 127.347 224.676 128.305 223.077 129.062C222.546 129.313 221.965 129.456 221.449 129.741C221.109 129.927 220.806 130.171 220.553 130.463Z" fill="#F7B699"/>
<path d="M228.57 129.055C227.016 131.519 226.382 134.448 226.777 137.331L230.707 138.417L231.353 132.336C231.417 131.728 231.812 130.406 231.424 129.949C231.037 129.491 229.209 129.284 228.57 129.055Z" fill="white"/>
<path d="M255.491 105.443C256.338 104.841 257.355 104.523 258.396 104.535L266.37 103.821C266.872 105.593 267.376 107.365 267.883 109.138C267.883 109.059 259.278 109.402 258.439 109.374C257.6 109.345 254.774 109.631 254.416 108.823C254.057 108.016 254.831 106.036 255.491 105.443Z" fill="white"/>
<path d="M272.968 149.623C272.968 146.765 273.133 143.977 273.312 141.162C273.549 137.495 273.828 133.829 273.871 130.156C273.988 125.585 273.683 121.014 272.96 116.499C272.769 115.374 272.53 114.267 272.243 113.176C272.186 112.954 272.129 112.718 272.064 112.461C271.211 110.431 269.604 107.744 267.46 106.551C267.104 106.526 266.747 106.526 266.392 106.551C263.925 106.713 261.472 106.982 259.034 107.358C257.356 107.615 256.165 107.83 254.932 109.109C251.784 112.382 248.829 119.7 248.004 124.196C247.223 128.484 247.531 128.741 247.079 133.079C246.549 138.239 245.796 143.37 244.82 148.473C243.996 152.761 242.769 157.434 239.191 159.964C245.129 162.444 251.138 164.967 257.499 165.939C263.86 166.911 270.709 166.268 276.145 162.794C273.57 158.907 272.953 154.297 272.968 149.623Z" fill="#0F89F9"/>
<path d="M258.281 120.558C258.063 120.068 257.722 119.642 257.291 119.322C256.8 119.028 256.227 118.898 255.656 118.95C253.168 119.057 251.196 121.094 249.869 123.181C248.542 125.268 247.509 127.655 245.616 129.27C242.31 132.078 234.343 129.784 230.643 128.962C227.824 131.714 227.523 134.887 228.986 138.589C233.949 140.733 244.39 145.921 249.783 143.349C251.629 142.379 253.17 140.92 254.236 139.132C254.898 138.106 255.501 137.045 256.043 135.952C257.367 133.593 258.373 131.07 259.034 128.448C259.7 125.81 259.434 123.024 258.281 120.558Z" fill="#0F89F9"/>
<path d="M260.489 111.625C259.649 110.802 258.557 110.285 257.386 110.155C256.216 110.026 255.036 110.292 254.035 110.91C252.866 111.625 252.271 113.147 251.669 114.34C250.932 115.805 250.304 117.322 249.79 118.879C249.259 120.487 248.85 122.137 248.356 123.753C247.538 126.411 246.477 128.991 245.867 131.7C245.258 134.408 245.15 137.317 246.14 139.897C247.574 143.592 252.472 141.626 254.645 139.575C256.509 137.81 257.406 135.287 258.23 132.85C259.055 130.413 259.909 127.969 260.74 125.525C261.621 123.136 262.181 120.642 262.404 118.107C262.519 115.705 262.089 113.326 260.489 111.625Z" fill="#0F89F9"/>
<path d="M247.294 126.947C248.459 121.527 250.49 116.33 253.311 111.553" stroke="black" stroke-width="0.75" stroke-miterlimit="10"/>
<path d="M262.168 122.316L258.962 130.892C258.195 132.95 257.47 135.58 256.015 137.281C254.559 138.982 253.211 140.819 251.432 142.212C249.737 143.642 247.561 144.377 245.344 144.27" stroke="black" stroke-width="0.75" stroke-miterlimit="10"/>
<path d="M263.336 123.081C262.365 123.627 261.568 124.435 261.034 125.411" stroke="black" stroke-width="0.75" stroke-miterlimit="10"/>
<path d="M229.832 121.823L228.549 122.538L229.201 121.237L236.939 113.254C236.979 113.213 237.027 113.18 237.08 113.158C237.133 113.136 237.19 113.124 237.247 113.124C237.305 113.124 237.362 113.136 237.415 113.158C237.468 113.18 237.516 113.213 237.556 113.254C237.637 113.336 237.683 113.446 237.683 113.561C237.683 113.677 237.637 113.787 237.556 113.869L229.832 121.823Z" fill="black"/>
</svg>
