<svg width="532" height="278" viewBox="0 0 532 278" fill="none" xmlns="http://www.w3.org/2000/svg">
<g clip-path="url(#clip0_21_180)">
<path d="M159.155 25.8628H107.267C106.557 25.8628 105.876 25.5816 105.374 25.081C104.873 24.5804 104.591 23.9015 104.591 23.1936C104.592 22.487 104.875 21.8099 105.377 21.3109C105.879 20.8119 106.558 20.5316 107.267 20.5316H159.155C159.867 20.5316 160.55 20.8136 161.053 21.3155C161.556 21.8173 161.839 22.498 161.839 23.2078C161.835 23.9145 161.55 24.5908 161.047 25.0885C160.544 25.5862 159.864 25.8646 159.155 25.8628Z" fill="#FAD780"/>
<path d="M529.316 99.628H494.53C493.82 99.628 493.14 99.3468 492.638 98.8462C492.136 98.3456 491.854 97.6667 491.854 96.9588C491.853 96.6077 491.921 96.2599 492.055 95.9352C492.19 95.6106 492.387 95.3155 492.635 95.0669C492.884 94.8183 493.179 94.6211 493.504 94.4865C493.83 94.3519 494.178 94.2827 494.53 94.2827H529.316C530.028 94.2827 530.711 94.5646 531.214 95.0665C531.717 95.5684 532 96.2491 532 96.9588C532 97.31 531.93 97.6576 531.796 97.9819C531.661 98.3062 531.463 98.6008 531.214 98.8487C530.964 99.0966 530.668 99.2931 530.343 99.4268C530.017 99.5605 529.668 99.6289 529.316 99.628Z" fill="#00C77D"/>
<path d="M320.819 0H316.566C315.449 0 314.543 0.903383 314.543 2.01776V5.99665C314.543 7.11103 315.449 8.01441 316.566 8.01441H320.819C321.936 8.01441 322.842 7.11103 322.842 5.99665V2.01776C322.842 0.903383 321.936 0 320.819 0Z" fill="#00C77D"/>
<path d="M503.113 241.983H498.861C497.743 241.983 496.837 242.886 496.837 244.001V247.98C496.837 249.094 497.743 249.997 498.861 249.997H503.113C504.231 249.997 505.136 249.094 505.136 247.98V244.001C505.136 242.886 504.231 241.983 503.113 241.983Z" fill="#FAD780"/>
<path d="M136.928 217.062H132.675C131.558 217.062 130.652 217.965 130.652 219.08V223.058C130.652 224.173 131.558 225.076 132.675 225.076H136.928C138.045 225.076 138.951 224.173 138.951 223.058V219.08C138.951 217.965 138.045 217.062 136.928 217.062Z" fill="#0F89F9"/>
<path d="M176.662 54.7699H476.385" stroke="white" stroke-width="1.65" stroke-miterlimit="10"/>
<path d="M472.075 33.1975H180.971C178.591 33.1975 176.662 35.1216 176.662 37.495V232.489C176.662 234.862 178.591 236.786 180.971 236.786H472.075C474.455 236.786 476.385 234.862 476.385 232.489V37.495C476.385 35.1216 474.455 33.1975 472.075 33.1975Z" stroke="white" stroke-width="1.65" stroke-miterlimit="10"/>
<path d="M472.075 33.1975H180.971C178.591 33.1975 176.662 35.1216 176.662 37.495V232.489C176.662 234.862 178.591 236.786 180.971 236.786H472.075C474.455 236.786 476.385 234.862 476.385 232.489V37.495C476.385 35.1216 474.455 33.1975 472.075 33.1975Z" stroke="white" stroke-width="1.65" stroke-miterlimit="10"/>
<path d="M194.758 47.2086C196.424 47.2086 197.775 45.8614 197.775 44.1996C197.775 42.5378 196.424 41.1907 194.758 41.1907C193.092 41.1907 191.741 42.5378 191.741 44.1996C191.741 45.8614 193.092 47.2086 194.758 47.2086Z" fill="#FE9184"/>
<path d="M206.493 47.2086C208.159 47.2086 209.51 45.8614 209.51 44.1996C209.51 42.5378 208.159 41.1907 206.493 41.1907C204.827 41.1907 203.476 42.5378 203.476 44.1996C203.476 45.8614 204.827 47.2086 206.493 47.2086Z" fill="#FAD780"/>
<path d="M218.221 47.2086C219.887 47.2086 221.238 45.8614 221.238 44.1996C221.238 42.5378 219.887 41.1907 218.221 41.1907C216.555 41.1907 215.204 42.5378 215.204 44.1996C215.204 45.8614 216.555 47.2086 218.221 47.2086Z" fill="#00C77D"/>
<path d="M518.525 142.943H394.459C392.209 142.943 390.384 144.762 390.384 147.006V201.182C390.384 203.426 392.209 205.246 394.459 205.246H518.525C520.776 205.246 522.6 203.426 522.6 201.182V147.006C522.6 144.762 520.776 142.943 518.525 142.943Z" fill="#FFF8D4"/>
<path d="M518.525 142.943H394.459C392.209 142.943 390.384 144.762 390.384 147.006V201.182C390.384 203.426 392.209 205.246 394.459 205.246H518.525C520.776 205.246 522.6 203.426 522.6 201.182V147.006C522.6 144.762 520.776 142.943 518.525 142.943Z" fill="#EEECFF" stroke="white" stroke-width="1.65" stroke-miterlimit="10"/>
<path d="M408.516 192.927H446.788C449.979 192.927 452.567 190.346 452.567 187.163V159.63C452.567 156.447 449.979 153.867 446.788 153.867H408.516C405.324 153.867 402.737 156.447 402.737 159.63V187.163C402.737 190.346 405.324 192.927 408.516 192.927Z" fill="#0F89F9"/>
<path d="M421.053 170.625C421.05 169.07 421.511 167.55 422.376 166.257C423.241 164.964 424.472 163.956 425.912 163.362C427.353 162.768 428.937 162.614 430.466 162.92C431.994 163.225 433.397 163.977 434.496 165.079C435.595 166.181 436.341 167.584 436.64 169.11C436.938 170.636 436.775 172.216 436.171 173.649C435.567 175.082 434.55 176.304 433.249 177.16C431.948 178.016 430.421 178.466 428.862 178.455C426.788 178.44 424.804 177.609 423.342 176.143C421.879 174.676 421.057 172.693 421.053 170.625ZM422.835 170.625C422.834 171.826 423.189 173 423.857 173.998C424.525 174.997 425.475 175.776 426.587 176.236C427.699 176.696 428.923 176.817 430.104 176.583C431.285 176.349 432.37 175.771 433.221 174.922C434.072 174.073 434.652 172.992 434.886 171.814C435.121 170.636 435 169.416 434.538 168.307C434.077 167.198 433.296 166.25 432.295 165.584C431.293 164.918 430.116 164.563 428.912 164.565C428.111 164.562 427.318 164.716 426.578 165.02C425.837 165.323 425.164 165.768 424.596 166.331C424.028 166.894 423.577 167.563 423.269 168.3C422.961 169.036 422.801 169.827 422.799 170.625H422.835Z" fill="#FDFDF3"/>
<path d="M423.327 174.914L421.008 177.227L422.268 178.484L424.587 176.171L423.327 174.914Z" fill="#FDFDF3"/>
<path d="M419.81 176.897L415.222 181.472C414.734 181.959 414.734 182.748 415.222 183.235L416.241 184.251C416.729 184.738 417.52 184.738 418.008 184.251L422.596 179.675C423.084 179.189 423.084 178.4 422.596 177.913L421.577 176.897C421.089 176.41 420.298 176.41 419.81 176.897Z" fill="#FDFDF3"/>
<path d="M461.767 165.492H507.401" stroke="white" stroke-width="1.65" stroke-miterlimit="10"/>
<path d="M461.767 173.436H484.016" stroke="white" stroke-width="1.65" stroke-miterlimit="10"/>
<path d="M461.767 181.379H507.401" stroke="white" stroke-width="1.65" stroke-miterlimit="10"/>
<path d="M183.307 99.8403H86.8142C83.9245 99.8403 81.582 102.176 81.582 105.058V177.28C81.582 180.162 83.9245 182.498 86.8142 182.498H183.307C186.197 182.498 188.539 180.162 188.539 177.28V105.058C188.539 102.176 186.197 99.8403 183.307 99.8403Z" fill="#EEECFF"/>
<path d="M183.307 99.8403H86.8142C83.9245 99.8403 81.582 102.176 81.582 105.058V177.28C81.582 180.162 83.9245 182.498 86.8142 182.498H183.307C186.197 182.498 188.539 180.162 188.539 177.28V105.058C188.539 102.176 186.197 99.8403 183.307 99.8403Z" stroke="white" stroke-width="1.65" stroke-miterlimit="10"/>
<path d="M98.0806 134.341H150.849" stroke="white" stroke-width="1.65" stroke-miterlimit="10"/>
<path d="M98.0806 150.228H150.849" stroke="white" stroke-width="1.65" stroke-miterlimit="10"/>
<path d="M98.0806 142.284H120.33" stroke="white" stroke-width="1.65" stroke-miterlimit="10"/>
<path d="M238.205 73.9564H116.809C115.126 73.9564 113.763 75.3162 113.763 76.9936V111.643C113.763 113.32 115.126 114.68 116.809 114.68H238.205C239.887 114.68 241.251 113.32 241.251 111.643V76.9936C241.251 75.3162 239.887 73.9564 238.205 73.9564Z" fill="#0F89F9"/>
<path d="M164.792 90.0418H226.896" stroke="white" stroke-width="1.65" stroke-miterlimit="10"/>
<path d="M164.792 97.9854H184.471" stroke="white" stroke-width="1.65" stroke-miterlimit="10"/>
<path fill-rule="evenodd" clip-rule="evenodd" d="M155.542 93.5818C146.945 84.4983 134.812 84.4983 126.215 93.5818C126.093 93.7039 126.024 93.8694 126.024 94.042C126.024 94.2145 126.093 94.38 126.215 94.5022C134.812 103.55 146.945 103.628 155.542 94.5022C155.652 94.3739 155.712 94.2107 155.712 94.042C155.712 93.8732 155.652 93.71 155.542 93.5818ZM135.217 94.0207C135.217 86.6293 146.54 86.6293 146.54 94.0207C146.54 101.412 135.217 101.455 135.217 94.0207ZM136.374 88.725C135.589 89.3706 134.956 90.1815 134.522 91.0995C134.088 92.0175 133.863 93.0199 133.863 94.0349C133.863 95.0499 134.088 96.0523 134.522 96.9703C134.956 97.8883 135.589 98.6992 136.374 99.3448C133.11 98.213 130.129 96.3921 127.635 94.0066C130.139 91.6475 133.118 89.8471 136.374 88.725ZM145.34 99.3448C146.117 98.6935 146.741 97.8808 147.169 96.9635C147.597 96.0463 147.819 95.0467 147.819 94.0349C147.819 93.0231 147.597 92.0235 147.169 91.1063C146.741 90.189 146.117 89.3763 145.34 88.725C148.577 89.8726 151.54 91.6756 154.044 94.0207C151.564 96.3966 148.604 98.2166 145.361 99.359L145.34 99.3448Z" fill="white"/>
<path d="M257.522 229.253C257.522 229.253 239.561 253.233 231.049 276.582H309.034C309.034 276.582 315.31 257.275 313.613 229.253H257.522Z" fill="#0F89F9"/>
<path d="M291.748 259.343L281.844 265.226L273.95 276.582" stroke="#4F3B32" stroke-width="1.09" stroke-miterlimit="10"/>
<path d="M398.747 83.2097L411.824 62.848L426.25 74.4236C426.25 74.4236 423.872 85.5319 410.915 90.8418L402.325 105.639L398.747 83.2097Z" fill="#FE9184"/>
<path d="M463.083 60.7507L426.639 24.4056C424.798 22.5697 421.813 22.5697 419.972 24.4056L392.152 52.1501C390.311 53.9859 390.311 56.9625 392.152 58.7983L428.596 95.1435C430.437 96.9794 433.422 96.9794 435.263 95.1435L463.083 67.399C464.924 65.5632 464.924 62.5866 463.083 60.7507Z" fill="#0F89F9"/>
<path d="M427.854 51.4565L417.766 50.7556L419.321 60.6391" stroke="white" stroke-width="2.47" stroke-linecap="round" stroke-linejoin="round"/>
<path d="M436.324 59.1453L437.786 69.1279L427.79 68.3279" stroke="white" stroke-width="2.47" stroke-linecap="round" stroke-linejoin="round"/>
<path d="M409.205 92.0879C413.769 85.0434 411.853 79.1105 411.853 79.1105L414.458 75.1245C414.733 74.7088 414.848 74.2073 414.78 73.7136C414.712 73.2199 414.466 72.7677 414.089 72.4412C413.731 72.1296 413.277 71.9504 412.802 71.9336C412.328 71.9168 411.862 72.0636 411.483 72.3492L405.967 76.5122L409.205 92.0879Z" fill="#FE9184"/>
<path d="M411.824 79.1105C411.824 79.1105 413.869 83.0964 411.114 88.3143" stroke="#4F3B32" stroke-width="1.27" stroke-linecap="round" stroke-linejoin="round"/>
<path d="M320.727 157.386C320.727 157.386 336.963 167.404 368.022 154.306C368.022 154.306 346.369 169.605 324.624 168.218L320.727 157.386Z" fill="black"/>
<path d="M264.16 183.836L272.289 179.057C272.289 179.057 268.938 191.801 264.26 207.688C264.245 207.688 265.963 198.944 264.16 183.836Z" fill="black"/>
<path d="M184.755 153.938L173.545 135.381C173.194 134.793 172.627 134.365 171.964 134.188C171.301 134.01 170.595 134.098 169.996 134.433C169.427 134.743 168.992 135.252 168.776 135.862C168.56 136.472 168.577 137.141 168.824 137.739L171.153 143.403C171.153 143.403 166.759 153.046 176.286 162.518L184.755 153.938Z" fill="#FE9184"/>
<path d="M169.13 138.433L165.339 132.925C165.109 132.592 164.801 132.321 164.442 132.135C164.082 131.949 163.683 131.853 163.278 131.857C162.873 131.86 162.475 131.962 162.119 132.155C161.763 132.347 161.46 132.624 161.235 132.96L158.609 136.918C157.862 138.048 157.389 139.336 157.227 140.68C157.064 142.024 157.216 143.388 157.672 144.663C161.213 154.426 167.419 163.009 175.59 169.443L180.716 154.674L169.13 138.433Z" fill="#FE9184"/>
<path d="M169.13 138.433L171.174 143.431C171.174 143.431 166.631 147.828 171.472 155.205" stroke="#4F3B32" stroke-width="1.27" stroke-linecap="round" stroke-linejoin="round"/>
<path fill-rule="evenodd" clip-rule="evenodd" d="M399.628 82.0062L370.805 120.903C357.565 130.836 314.934 136.932 314.934 136.932L314.935 136.937L272.793 139.084C271.07 139.172 269.407 139.716 267.973 140.654L209.915 175.517L184.734 147.7L167.256 166.327L199.465 203.631C200.985 205.393 202.998 206.661 205.246 207.273C207.494 207.885 209.874 207.812 212.08 207.065L223.034 203.362L223.034 203.362C223.034 203.362 247.099 193.134 263.839 184.001C263.937 184.622 264.039 185.251 264.146 185.889C268.178 210.01 257.522 229.253 257.522 229.253C257.522 229.253 282.874 244.949 315.083 231.448C315.083 231.448 318.002 211.259 320.264 186.006C327.218 182.086 328.666 175.286 327.693 168.217C352.754 167.85 377.186 147.98 378.151 147.187L378.152 147.191C393.955 136.691 411.824 103.295 411.824 103.295L399.628 82.0062Z" fill="#FFF1D7"/>
<path d="M397.853 276.582H140.634" stroke="#4F3B32" stroke-width="1.17" stroke-miterlimit="10"/>
<path d="M268.313 123.501C275.504 123.501 281.333 117.688 281.333 110.517C281.333 103.346 275.504 97.5323 268.313 97.5323C261.122 97.5323 255.293 103.346 255.293 110.517C255.293 117.688 261.122 123.501 268.313 123.501Z" fill="#44312A"/>
<path d="M288.297 114.333L289.121 138.142C289.148 138.936 289.483 139.687 290.055 140.239C290.627 140.791 291.392 141.101 292.188 141.102H301.324C301.731 141.102 302.134 141.021 302.51 140.864C302.885 140.708 303.225 140.478 303.511 140.189C303.796 139.899 304.021 139.556 304.172 139.179C304.323 138.803 304.398 138.4 304.391 137.994L304.079 117.179L288.297 114.333Z" fill="#FE9184"/>
<path d="M289.462 111.904C289.462 111.904 293.26 128.896 304.264 129.902L304.072 117.158L289.462 111.904Z" fill="#503931"/>
<path d="M307.756 77.3334C307.756 77.3334 324.468 74.9758 319.946 93.9074C315.424 112.839 318.384 124.422 305.989 123.438C293.593 122.453 287.304 118.977 284.159 103.94C281.014 88.9019 286.324 78.1193 307.756 77.3334Z" fill="#FE9184"/>
<path d="M289.462 108.683C289.462 108.683 293.054 102.715 285.912 93.4543C285.912 93.4543 301.381 75.5139 320.194 84.1089C320.194 84.1089 317.66 71.1881 296.767 73.5669C276.449 75.875 268.207 93.3906 276.569 103.94C284.932 114.489 287.02 112.789 287.02 112.789L289.462 108.683Z" fill="#4F3B32"/>
<path d="M289.774 139.934C289.774 139.934 294.204 147.014 302.106 144.436C302.692 144.251 303.23 143.938 303.681 143.522C304.132 143.105 304.485 142.594 304.716 142.025C304.946 141.457 305.048 140.844 305.014 140.232C304.98 139.619 304.811 139.022 304.519 138.482C303.854 137.38 303.013 136.395 302.027 135.565L289.774 139.934Z" fill="#FE9184"/>
<path d="M310.908 104.017L313.074 107.777L311.001 109.32" stroke="#4F3B32" stroke-width="1.27" stroke-linecap="round" stroke-linejoin="round"/>
<path d="M301.026 91.0755C301.026 91.0755 306.656 90.6153 306.706 92.9021C306.706 92.9021 306.706 94.4455 301.793 94.757C296.88 95.0685 293.728 94.7004 293.274 93.249C292.82 91.7976 298.385 91.0897 301.026 91.0755Z" fill="#4F3B32"/>
<path d="M316.275 91.2312C316.275 91.2312 312.57 90.8348 312.016 92.7038C312.016 92.7038 311.689 93.9641 314.948 94.2402C318.206 94.5163 319.257 94.1127 319.413 93.0366C319.633 91.7622 318.057 91.2595 316.275 91.2312Z" fill="#4F3B32"/>
<path d="M299.713 101.306C299.702 101.638 299.79 101.965 299.966 102.248C300.142 102.53 300.397 102.753 300.701 102.89C301.004 103.027 301.341 103.071 301.67 103.017C301.998 102.963 302.303 102.812 302.546 102.585C302.789 102.358 302.959 102.064 303.034 101.74C303.109 101.417 303.086 101.078 302.968 100.768C302.85 100.457 302.643 100.189 302.372 99.9957C302.101 99.8028 301.778 99.6946 301.445 99.6846C301.225 99.677 301.005 99.713 300.798 99.7905C300.591 99.868 300.402 99.9855 300.241 100.136C300.08 100.287 299.951 100.468 299.86 100.668C299.769 100.869 299.72 101.086 299.713 101.306Z" fill="#4F3B32"/>
<path d="M312.584 101.115C312.57 101.409 312.644 101.701 312.797 101.954C312.95 102.206 313.175 102.407 313.443 102.532C313.711 102.657 314.01 102.699 314.302 102.654C314.594 102.609 314.866 102.478 315.083 102.278C315.301 102.078 315.454 101.818 315.523 101.532C315.592 101.245 315.574 100.944 315.471 100.668C315.368 100.391 315.185 100.152 314.945 99.979C314.706 99.8065 314.42 99.7089 314.124 99.6988C313.732 99.6834 313.35 99.8238 313.061 100.089C312.772 100.355 312.601 100.723 312.584 101.115Z" fill="#4F3B32"/>
<path d="M305.137 110.821C305.137 110.821 305.946 112.945 309.034 112.471" stroke="#4F3B32" stroke-width="1.27" stroke-linecap="round" stroke-linejoin="round"/>
<path d="M287.377 116.696C290.658 115.349 292.223 111.604 290.873 108.332C289.523 105.06 285.768 103.499 282.486 104.845C279.205 106.192 277.64 109.937 278.99 113.209C280.341 116.481 284.096 118.042 287.377 116.696Z" fill="#FE9184"/>
<path d="M281.908 109.136C281.908 109.136 285.089 106.141 288.262 109.972" stroke="#4F3B32" stroke-width="1.27" stroke-linecap="round" stroke-linejoin="round"/>
</g>
<defs>
<clipPath id="clip0_21_180">
<rect width="532" height="278" fill="white"/>
</clipPath>
</defs>
</svg>
