<svg width="21" height="22" viewBox="0 0 21 22" fill="none" xmlns="http://www.w3.org/2000/svg">
<g clip-path="url(#clip0_45_293)">
<path d="M20.5102 11.1965C20.5102 10.3361 20.4404 9.70827 20.2893 9.05719H10.4648V12.9404H16.2316C16.1154 13.9055 15.4875 15.3588 14.0923 16.3354L14.0728 16.4654L17.1791 18.8718L17.3943 18.8933C19.3708 17.0679 20.5102 14.3821 20.5102 11.1965Z" fill="#4285F4"/>
<path d="M10.465 21.4279C13.2902 21.4279 15.662 20.4977 17.3944 18.8933L14.0925 16.3354C13.2089 16.9516 12.0229 17.3818 10.465 17.3818C7.69788 17.3818 5.34933 15.5564 4.51213 13.0335L4.38942 13.0439L1.15943 15.5436L1.11719 15.661C2.8379 19.0792 6.3724 21.4279 10.465 21.4279Z" fill="#34A853"/>
<path d="M4.51205 13.0335C4.29115 12.3824 4.1633 11.6847 4.1633 10.9639C4.1633 10.243 4.29115 9.54547 4.50043 8.89439L4.49457 8.75573L1.22411 6.21585L1.1171 6.26675C0.407912 7.68521 0.000976562 9.27808 0.000976562 10.9639C0.000976562 12.6498 0.407912 14.2426 1.1171 15.661L4.51205 13.0335Z" fill="#FBBC05"/>
<path d="M10.465 4.54603C12.4299 4.54603 13.7553 5.39476 14.511 6.10403L17.4642 3.22062C15.6505 1.53477 13.2902 0.5 10.465 0.5C6.3724 0.5 2.8379 2.84855 1.11719 6.26674L4.50051 8.89439C5.34933 6.37142 7.69788 4.54603 10.465 4.54603Z" fill="#EB4335"/>
</g>
<defs>
<clipPath id="clip0_45_293">
<rect width="20.5212" height="21" fill="white" transform="translate(0 0.5)"/>
</clipPath>
</defs>
</svg>
