<svg width="120" height="33" viewBox="0 0 120 33" fill="none" xmlns="http://www.w3.org/2000/svg">
<rect width="33" height="33" rx="8" fill="black"/>
<g clip-path="url(#clip0_3_143)">
<path fill-rule="evenodd" clip-rule="evenodd" d="M20.9423 12.4668C21.0723 12.2352 21.1547 11.98 21.185 11.7161C21.2152 11.4523 21.1926 11.1851 21.1185 10.9301C21.0444 10.675 20.9202 10.4374 20.7532 10.2308C20.5863 10.0243 20.3798 9.85315 20.146 9.72728C19.9121 9.6014 19.6556 9.52336 19.3912 9.4977C19.1269 9.47204 18.8601 9.49928 18.6064 9.57784C18.3528 9.65639 18.1173 9.78468 17.9137 9.95522C17.7101 10.1258 17.5425 10.3351 17.4207 10.5711L15.4098 14.3069C15.1585 14.7739 15.103 15.3216 15.2554 15.8296C15.4079 16.3375 15.7558 16.7641 16.2228 17.0155C16.4515 17.1438 16.6206 17.3568 16.6938 17.6086C16.767 17.8603 16.7384 18.1308 16.6141 18.3617C16.4898 18.5926 16.2798 18.7654 16.0293 18.843C15.7789 18.9205 15.508 18.8966 15.275 18.7763C14.3411 18.2735 13.6452 17.4203 13.3403 16.4044C13.0354 15.3885 13.1464 14.2931 13.649 13.3591L15.6599 9.6233C16.173 8.70856 17.0249 8.03193 18.032 7.73916C19.0392 7.44639 20.121 7.5609 21.0445 8.05802C21.968 8.55515 22.6594 9.39511 22.9696 10.397C23.2798 11.3989 23.1841 12.4826 22.7031 13.4146L21.6977 15.2825C21.6368 15.4005 21.553 15.5052 21.4512 15.5904C21.3494 15.6757 21.2317 15.7399 21.1048 15.7791C20.978 15.8184 20.8446 15.832 20.7124 15.8192C20.5803 15.8064 20.452 15.7674 20.3351 15.7044C20.2181 15.6415 20.1149 15.5559 20.0314 15.4526C19.9479 15.3494 19.8858 15.2305 19.8488 15.103C19.8117 14.9755 19.8004 14.8419 19.8155 14.71C19.8307 14.5781 19.8719 14.4505 19.9369 14.3347L20.9423 12.4668ZM17.5908 18.6931C17.8421 18.2261 17.8976 17.6784 17.7451 17.1704C17.5927 16.6625 17.2447 16.2359 16.7778 15.9845C16.6598 15.9236 16.5551 15.8398 16.4698 15.738C16.3846 15.6362 16.3204 15.5185 16.2812 15.3916C16.2419 15.2648 16.2283 15.1314 16.2411 14.9992C16.2539 14.867 16.2929 14.7388 16.3559 14.6218C16.4188 14.5049 16.5044 14.4017 16.6077 14.3182C16.7109 14.2347 16.8298 14.1726 16.9573 14.1356C17.0848 14.0985 17.2184 14.0872 17.3503 14.1023C17.4822 14.1175 17.6098 14.1587 17.7256 14.2237C18.6595 14.7265 19.3554 15.5797 19.6603 16.5956C19.9652 17.6115 19.8542 18.7069 19.3516 19.6409L17.3406 23.3767C17.0971 23.8487 16.7619 24.2674 16.3548 24.6085C15.9476 24.9496 15.4766 25.2062 14.9692 25.3633C14.4619 25.5204 13.9283 25.5749 13.3996 25.5236C12.871 25.4722 12.3578 25.3161 11.8902 25.0644C11.4225 24.8126 11.0096 24.4703 10.6757 24.0573C10.3417 23.6442 10.0933 23.1689 9.94509 22.6588C9.79682 22.1488 9.75162 21.6144 9.81211 21.0867C9.87261 20.559 10.0376 20.0486 10.2974 19.5854L11.3029 17.7175C11.3638 17.5995 11.4476 17.4948 11.5494 17.4096C11.6512 17.3243 11.7689 17.2601 11.8957 17.2209C12.0226 17.1816 12.156 17.168 12.2881 17.1808C12.4203 17.1936 12.5486 17.2327 12.6655 17.2956C12.7824 17.3585 12.8857 17.4441 12.9691 17.5474C13.0526 17.6506 13.1147 17.7695 13.1518 17.897C13.1889 18.0245 13.2002 18.1581 13.185 18.29C13.1699 18.4219 13.1287 18.5495 13.0637 18.6653L12.0582 20.5332C11.9283 20.7649 11.8458 21.02 11.8156 21.2839C11.7853 21.5477 11.8079 21.8149 11.8821 22.0699C11.9562 22.325 12.0804 22.5626 12.2473 22.7692C12.4143 22.9757 12.6208 23.1469 12.8546 23.2727C13.0884 23.3986 13.345 23.4766 13.6093 23.5023C13.8737 23.528 14.1404 23.5007 14.3941 23.4222C14.6478 23.3436 14.8833 23.2153 15.0869 23.0448C15.2905 22.8742 15.458 22.6649 15.5798 22.4289L17.5908 18.6931Z" fill="white"/>
</g>
<path d="M52.296 25.336C48.864 25.336 46.608 23.68 45.696 21.184L48.528 19.528C49.128 21.088 50.304 22.096 52.392 22.096C54.384 22.096 55.08 21.256 55.08 20.32C55.08 19.072 53.952 18.592 51.456 17.872C48.888 17.128 46.392 16.048 46.392 12.856C46.392 9.688 49.032 7.864 51.912 7.864C54.672 7.864 56.784 9.28 57.912 11.632L55.128 13.24C54.528 11.968 53.616 11.08 51.912 11.08C50.52 11.08 49.704 11.8 49.704 12.76C49.704 13.792 50.352 14.344 52.896 15.112C55.56 15.952 58.392 16.84 58.392 20.272C58.392 23.416 55.872 25.336 52.296 25.336ZM67.0802 12.664C69.6242 12.664 71.6162 14.44 71.6162 17.632V25H68.5202V18.016C68.5202 16.384 67.5362 15.544 66.1442 15.544C64.6322 15.544 63.5042 16.432 63.5042 18.52V25H60.4082V8.2H63.5042V14.344C64.2242 13.264 65.4722 12.664 67.0802 12.664ZM77.3558 15.064C77.9798 13.432 79.4918 12.76 81.0038 12.76V16.216C79.3958 16.024 77.3558 16.744 77.3558 19.264V25H74.2598V13H77.3558V15.064ZM90.0066 15.976H87.2946V20.968C87.2946 22.264 88.2306 22.288 90.0066 22.192V25C85.6626 25.48 84.1986 24.208 84.1986 20.968V15.976H82.1106V13H84.1986V10.576L87.2946 9.64V13H90.0066V15.976ZM99.0489 12.664C101.593 12.664 103.585 14.44 103.585 17.632V25H100.489V18.016C100.489 16.384 99.5049 15.544 98.1129 15.544C96.6009 15.544 95.4729 16.432 95.4729 18.52V25H92.3769V13H95.4729V14.344C96.1929 13.264 97.4409 12.664 99.0489 12.664ZM109.325 15.064C109.949 13.432 111.461 12.76 112.973 12.76V16.216C111.365 16.024 109.325 16.744 109.325 19.264V25H106.229V13H109.325V15.064Z" fill="black"/>
<path d="M116.583 25.312C115.455 25.312 114.543 24.4 114.543 23.272C114.543 22.144 115.455 21.232 116.583 21.232C117.711 21.232 118.623 22.144 118.623 23.272C118.623 24.4 117.711 25.312 116.583 25.312Z" fill="#0F89F9"/>
<defs>
<clipPath id="clip0_3_143">
<rect width="20" height="20" fill="white" transform="matrix(-0.287475 -0.957788 -0.957788 0.287475 28.9529 23.2031)"/>
</clipPath>
</defs>
</svg>
